<?xml version="1.0" standalone="no"?>
<!DOCTYPE svg PUBLIC "-//W3C//DTD SVG 1.1//EN" 
  "http://www.w3.org/Graphics/SVG/1.1/DTD/svg11.dtd">
<svg width="146.000mm" height="86.000mm" version="1.1"
     viewBox="0 0 146.000 86.000"
     xmlns="http://www.w3.org/2000/svg"  xmlns:xlink="http://www.w3.org/1999/xlink" 
     xmlns:fpd="http://www.schaeffer-ag.de">
  <desc>Created with the Front Panel Designer by the export of the file 'Remotepanel.fpd'.</desc>
  <defs>
    <pattern id="revside-fill" x="1" y="1" width="1.460" height="1.460" patternUnits="userSpaceOnUse">
      <line x1="0" y1="0" x2="1.460" y2="1.460" style="stroke-width:0.146; stroke:black; stroke-dasharray:none;" />
      <line x1="0" y1="1.460" x2="1.460" y2="0" style="stroke-width:0.146; stroke:black; stroke-dasharray:none;" />
    </pattern>
    <pattern id="revside-fill-silver" x="1" y="1" width="1.460" height="1.460" patternUnits="userSpaceOnUse">
      <line x1="0" y1="0" x2="1.460" y2="1.460" style="stroke-width:0.146; stroke:#e0e0e0; stroke-dasharray:none;" />
      <line x1="0" y1="1.460" x2="1.460" y2="0" style="stroke-width:0.146; stroke:#e0e0e0; stroke-dasharray:none;" />
    </pattern>
  </defs>
<g transform="scale(1,-1) translate( -0.000, -86.000)" 
   fill-rule="evenodd"
   style="stroke-linecap:round; stroke-linejoin:round; stroke-opacity:1.0; stroke-opacity:1.0;">
<path d="
M143.000 86.000
A3.000,3.000 0 0,0 146.000,83.000
L146.000 3.000
A3.000,3.000 0 0,0 143.000,0.000
L3.000 0.000
A3.000,3.000 0 0,0 0.000,3.000
L0.000 83.000
A3.000,3.000 0 0,0 3.000,86.000
L143.000 86.000
" 
fill="#c0c0c0" vector-effect="non-scaling-stroke" stroke="#000000" stroke-width="0.100mm" fpd:visible="front back" />
<path d="
M45.385 72.845
A3.500,3.500 0 1,0 38.385,72.845
A3.500,3.500 0 1,0 45.385,72.845
" 
fill="url(#revside-fill-silver)" vector-effect="non-scaling-stroke" stroke="#00d000" stroke-width="0.100mm"  stroke-dasharray="1.5 1.5" fpd:visible="back" fpd:print_element="0" fpd:bolt="GO30 6000" />
<path d="
M44.385 72.845
A2.500,2.500 0 1,0 39.385,72.845
A2.500,2.500 0 1,0 44.385,72.845
" 
fill="url(#revside-fill-808080)" vector-effect="non-scaling-stroke" stroke="#00d000" stroke-width="0.100mm"  stroke-dasharray="1.5 1.5" fpd:visible="back" fpd:print_element="0" fpd:bolt="GO30 6000" />
<path d="
M43.385 72.845
A1.500,1.500 0 1,0 40.385,72.845
A1.500,1.500 0 1,0 43.385,72.845
" 
fill="url(#revside-fill-silver)" vector-effect="non-scaling-stroke" stroke="#00d000" stroke-width="0.100mm"  stroke-dasharray="1.5 1.5" fpd:visible="back" fpd:print_element="0" fpd:bolt="GO30 6000" />
<path d="
M107.615 72.845
A3.500,3.500 0 1,0 100.615,72.845
A3.500,3.500 0 1,0 107.615,72.845
" 
fill="url(#revside-fill-silver)" vector-effect="non-scaling-stroke" stroke="#00d000" stroke-width="0.100mm"  stroke-dasharray="1.5 1.5" fpd:visible="back" fpd:print_element="0" fpd:bolt="GO30 6000" />
<path d="
M106.615 72.845
A2.500,2.500 0 1,0 101.615,72.845
A2.500,2.500 0 1,0 106.615,72.845
" 
fill="url(#revside-fill-808080)" vector-effect="non-scaling-stroke" stroke="#00d000" stroke-width="0.100mm"  stroke-dasharray="1.5 1.5" fpd:visible="back" fpd:print_element="0" fpd:bolt="GO30 6000" />
<path d="
M105.615 72.845
A1.500,1.500 0 1,0 102.615,72.845
A1.500,1.500 0 1,0 105.615,72.845
" 
fill="url(#revside-fill-silver)" vector-effect="non-scaling-stroke" stroke="#00d000" stroke-width="0.100mm"  stroke-dasharray="1.5 1.5" fpd:visible="back" fpd:print_element="0" fpd:bolt="GO30 6000" />
<path d="
M45.385 13.155
A3.500,3.500 0 1,0 38.385,13.155
A3.500,3.500 0 1,0 45.385,13.155
" 
fill="url(#revside-fill-silver)" vector-effect="non-scaling-stroke" stroke="#00d000" stroke-width="0.100mm"  stroke-dasharray="1.5 1.5" fpd:visible="back" fpd:print_element="0" fpd:bolt="GO30 6000" />
<path d="
M44.385 13.155
A2.500,2.500 0 1,0 39.385,13.155
A2.500,2.500 0 1,0 44.385,13.155
" 
fill="url(#revside-fill-808080)" vector-effect="non-scaling-stroke" stroke="#00d000" stroke-width="0.100mm"  stroke-dasharray="1.5 1.5" fpd:visible="back" fpd:print_element="0" fpd:bolt="GO30 6000" />
<path d="
M43.385 13.155
A1.500,1.500 0 1,0 40.385,13.155
A1.500,1.500 0 1,0 43.385,13.155
" 
fill="url(#revside-fill-silver)" vector-effect="non-scaling-stroke" stroke="#00d000" stroke-width="0.100mm"  stroke-dasharray="1.5 1.5" fpd:visible="back" fpd:print_element="0" fpd:bolt="GO30 6000" />
<path d="
M107.615 13.155
A3.500,3.500 0 1,0 100.615,13.155
A3.500,3.500 0 1,0 107.615,13.155
" 
fill="url(#revside-fill-silver)" vector-effect="non-scaling-stroke" stroke="#00d000" stroke-width="0.100mm"  stroke-dasharray="1.5 1.5" fpd:visible="back" fpd:print_element="0" fpd:bolt="GO30 6000" />
<path d="
M106.615 13.155
A2.500,2.500 0 1,0 101.615,13.155
A2.500,2.500 0 1,0 106.615,13.155
" 
fill="url(#revside-fill-808080)" vector-effect="non-scaling-stroke" stroke="#00d000" stroke-width="0.100mm"  stroke-dasharray="1.5 1.5" fpd:visible="back" fpd:print_element="0" fpd:bolt="GO30 6000" />
<path d="
M105.615 13.155
A1.500,1.500 0 1,0 102.615,13.155
A1.500,1.500 0 1,0 105.615,13.155
" 
fill="url(#revside-fill-silver)" vector-effect="non-scaling-stroke" stroke="#00d000" stroke-width="0.100mm"  stroke-dasharray="1.5 1.5" fpd:visible="back" fpd:print_element="0" fpd:bolt="GO30 6000" />
<path d="
M133.295 39.502
L133.486 39.507
L133.544 39.509
L133.601 39.514
L133.651 39.519
L133.840 39.543
L133.897 39.551
L133.953 39.562
L134.014 39.575
L134.199 39.619
L134.254 39.633
L134.310 39.649
L134.354 39.664
L134.534 39.726
L134.588 39.746
L134.642 39.767
L134.700 39.793
L134.872 39.874
L134.924 39.900
L134.974 39.927
L135.015 39.951
L135.179 40.049
L135.228 40.079
L135.276 40.111
L135.323 40.145
L135.475 40.259
L135.520 40.294
L135.564 40.331
L135.608 40.370
L135.748 40.500
L135.789 40.540
L135.829 40.581
L135.863 40.618
L135.989 40.761
L136.026 40.805
L136.062 40.850
L136.097 40.897
L136.207 41.052
L136.239 41.099
L136.270 41.148
L136.297 41.194
L136.391 41.360
L136.418 41.410
L136.444 41.462
L136.467 41.513
L136.543 41.687
L136.565 41.740
L136.585 41.793
L136.603 41.846
L136.661 42.028
L136.678 42.083
L136.692 42.139
L136.704 42.190
L136.743 42.376
L136.754 42.433
L136.763 42.490
L136.769 42.542
L136.789 42.732
L136.794 42.789
L136.797 42.847
L136.798 42.905
L136.798 43.095
L136.797 43.152
L136.794 43.210
L136.789 43.268
L136.769 43.458
L136.762 43.515
L136.753 43.571
L136.743 43.624
L136.704 43.810
L136.691 43.866
L136.676 43.921
L136.661 43.972
L136.603 44.154
L136.585 44.208
L136.564 44.262
L136.543 44.313
L136.467 44.487
L136.443 44.540
L136.417 44.591
L136.391 44.640
L136.297 44.806
L136.268 44.856
L136.237 44.904
L136.207 44.948
L136.097 45.103
L136.063 45.149
L136.027 45.194
L135.989 45.239
L135.863 45.382
L135.824 45.424
L135.784 45.465
L135.748 45.500
L135.608 45.630
L135.565 45.668
L135.521 45.705
L135.475 45.741
L135.323 45.855
L135.276 45.889
L135.229 45.921
L135.179 45.951
L135.015 46.049
L134.966 46.078
L134.915 46.105
L134.872 46.126
L134.700 46.207
L134.648 46.230
L134.594 46.252
L134.534 46.274
L134.354 46.336
L134.300 46.354
L134.245 46.370
L134.199 46.381
L134.014 46.425
L133.958 46.438
L133.901 46.448
L133.840 46.457
L133.651 46.481
L133.594 46.487
L133.536 46.491
L133.486 46.493
L133.295 46.498
L133.238 46.499
L133.180 46.497
L133.131 46.495
L132.941 46.481
L132.884 46.475
L132.827 46.468
L132.767 46.458
L132.580 46.424
L132.524 46.413
L132.468 46.400
L132.408 46.384
L132.225 46.330
L132.170 46.312
L132.116 46.293
L132.075 46.277
L131.899 46.206
L131.846 46.184
L131.794 46.160
L131.737 46.130
L131.569 46.040
L131.519 46.012
L131.470 45.983
L131.429 45.956
L131.271 45.850
L131.224 45.817
L131.178 45.783
L131.136 45.750
L130.989 45.628
L130.946 45.590
L130.903 45.551
L130.859 45.507
L130.726 45.370
L130.687 45.328
L130.649 45.285
L130.617 45.245
L130.499 45.096
L130.464 45.051
L130.430 45.004
L130.398 44.955
L130.296 44.794
L130.266 44.745
L130.238 44.695
L130.214 44.649
L130.129 44.479
L130.104 44.427
L130.081 44.374
L130.061 44.322
L129.994 44.144
L129.974 44.090
L129.957 44.035
L129.943 43.985
L129.894 43.800
L129.880 43.745
L129.868 43.688
L129.858 43.630
L129.829 43.442
L129.822 43.385
L129.816 43.327
L129.812 43.277
L129.802 43.087
L129.800 43.029
L129.800 42.972
L129.802 42.913
L129.812 42.723
L129.816 42.666
L129.822 42.609
L129.829 42.558
L129.858 42.370
L129.868 42.314
L129.880 42.258
L129.894 42.200
L129.943 42.015
L129.959 41.959
L129.976 41.905
L129.994 41.856
L130.061 41.678
L130.082 41.624
L130.105 41.572
L130.129 41.521
L130.214 41.351
L130.241 41.300
L130.269 41.250
L130.296 41.206
L130.398 41.045
L130.430 40.997
L130.463 40.950
L130.499 40.904
L130.617 40.755
L130.653 40.710
L130.691 40.667
L130.726 40.630
L130.859 40.493
L130.900 40.452
L130.942 40.413
L130.989 40.372
L131.136 40.250
L131.181 40.214
L131.227 40.180
L131.271 40.150
L131.429 40.044
L131.477 40.013
L131.526 39.983
L131.569 39.960
L131.737 39.870
L131.788 39.843
L131.840 39.819
L131.899 39.794
L132.075 39.723
L132.128 39.702
L132.183 39.684
L132.225 39.670
L132.408 39.616
L132.463 39.601
L132.519 39.588
L132.580 39.576
L132.767 39.542
L132.824 39.532
L132.881 39.525
L132.941 39.519
L133.131 39.505
L133.188 39.502
L133.246 39.501
L133.295 39.502
M131.450 43.000
A1.850,1.850 0 1,0 135.150,43.000
A1.850,1.850 0 1,0 131.450,43.000
" 
fill="#e0e0e0" vector-effect="non-scaling-stroke" stroke="#000000" stroke-width="0.100mm" fpd:visible="front" />
<path d="
M133.295 39.502
L133.486 39.507
L133.544 39.509
L133.601 39.514
L133.651 39.519
L133.840 39.543
L133.897 39.551
L133.953 39.562
L134.014 39.575
L134.199 39.619
L134.254 39.633
L134.310 39.649
L134.354 39.664
L134.534 39.726
L134.588 39.746
L134.642 39.767
L134.700 39.793
L134.872 39.874
L134.924 39.900
L134.974 39.927
L135.015 39.951
L135.179 40.049
L135.228 40.079
L135.276 40.111
L135.323 40.145
L135.475 40.259
L135.520 40.294
L135.564 40.331
L135.608 40.370
L135.748 40.500
L135.789 40.540
L135.829 40.581
L135.863 40.618
L135.989 40.761
L136.026 40.805
L136.062 40.850
L136.097 40.897
L136.207 41.052
L136.239 41.099
L136.270 41.148
L136.297 41.194
L136.391 41.360
L136.418 41.410
L136.444 41.462
L136.467 41.513
L136.543 41.687
L136.565 41.740
L136.585 41.793
L136.603 41.846
L136.661 42.028
L136.678 42.083
L136.692 42.139
L136.704 42.190
L136.743 42.376
L136.754 42.433
L136.763 42.490
L136.769 42.542
L136.789 42.732
L136.794 42.789
L136.797 42.847
L136.798 42.905
L136.798 43.095
L136.797 43.152
L136.794 43.210
L136.789 43.268
L136.769 43.458
L136.762 43.515
L136.753 43.571
L136.743 43.624
L136.704 43.810
L136.691 43.866
L136.676 43.921
L136.661 43.972
L136.603 44.154
L136.585 44.208
L136.564 44.262
L136.543 44.313
L136.467 44.487
L136.443 44.540
L136.417 44.591
L136.391 44.640
L136.297 44.806
L136.268 44.856
L136.237 44.904
L136.207 44.948
L136.097 45.103
L136.063 45.149
L136.027 45.194
L135.989 45.239
L135.863 45.382
L135.824 45.424
L135.784 45.465
L135.748 45.500
L135.608 45.630
L135.565 45.668
L135.521 45.705
L135.475 45.741
L135.323 45.855
L135.276 45.889
L135.229 45.921
L135.179 45.951
L135.015 46.049
L134.966 46.078
L134.915 46.105
L134.872 46.126
L134.700 46.207
L134.648 46.230
L134.594 46.252
L134.534 46.274
L134.354 46.336
L134.300 46.354
L134.245 46.370
L134.199 46.381
L134.014 46.425
L133.958 46.438
L133.901 46.448
L133.840 46.457
L133.651 46.481
L133.594 46.487
L133.536 46.491
L133.486 46.493
L133.295 46.498
L133.238 46.499
L133.180 46.497
L133.131 46.495
L132.941 46.481
L132.884 46.475
L132.827 46.468
L132.767 46.458
L132.580 46.424
L132.524 46.413
L132.468 46.400
L132.408 46.384
L132.225 46.330
L132.170 46.312
L132.116 46.293
L132.075 46.277
L131.899 46.206
L131.846 46.184
L131.794 46.160
L131.737 46.130
L131.569 46.040
L131.519 46.012
L131.470 45.983
L131.429 45.956
L131.271 45.850
L131.224 45.817
L131.178 45.783
L131.136 45.750
L130.989 45.628
L130.946 45.590
L130.903 45.551
L130.859 45.507
L130.726 45.370
L130.687 45.328
L130.649 45.285
L130.617 45.245
L130.499 45.096
L130.464 45.051
L130.430 45.004
L130.398 44.955
L130.296 44.794
L130.266 44.745
L130.238 44.695
L130.214 44.649
L130.129 44.479
L130.104 44.427
L130.081 44.374
L130.061 44.322
L129.994 44.144
L129.974 44.090
L129.957 44.035
L129.943 43.985
L129.894 43.800
L129.880 43.745
L129.868 43.688
L129.858 43.630
L129.829 43.442
L129.822 43.385
L129.816 43.327
L129.812 43.277
L129.802 43.087
L129.800 43.029
L129.800 42.972
L129.802 42.913
L129.812 42.723
L129.816 42.666
L129.822 42.609
L129.829 42.558
L129.858 42.370
L129.868 42.314
L129.880 42.258
L129.894 42.200
L129.943 42.015
L129.959 41.959
L129.976 41.905
L129.994 41.856
L130.061 41.678
L130.082 41.624
L130.105 41.572
L130.129 41.521
L130.214 41.351
L130.241 41.300
L130.269 41.250
L130.296 41.206
L130.398 41.045
L130.430 40.997
L130.463 40.950
L130.499 40.904
L130.617 40.755
L130.653 40.710
L130.691 40.667
L130.726 40.630
L130.859 40.493
L130.900 40.452
L130.942 40.413
L130.989 40.372
L131.136 40.250
L131.181 40.214
L131.227 40.180
L131.271 40.150
L131.429 40.044
L131.477 40.013
L131.526 39.983
L131.569 39.960
L131.737 39.870
L131.788 39.843
L131.840 39.819
L131.899 39.794
L132.075 39.723
L132.128 39.702
L132.183 39.684
L132.225 39.670
L132.408 39.616
L132.463 39.601
L132.519 39.588
L132.580 39.576
L132.767 39.542
L132.824 39.532
L132.881 39.525
L132.941 39.519
L133.131 39.505
L133.188 39.502
L133.246 39.501
L133.295 39.502
" 
fill="none" vector-effect="non-scaling-stroke" stroke="#000000" stroke-width="0.100mm" fpd:visible="front" />
<path d="
M131.450 43.000
A1.850,1.850 0 1,0 135.150,43.000
A1.850,1.850 0 1,0 131.450,43.000
" 
fill="#ffffff" vector-effect="non-scaling-stroke" stroke="#000000" stroke-width="0.100mm" fpd:visible="front back" fpd:print_element="0" />
<path d="
M12.695 39.502
L12.886 39.507
L12.944 39.509
L13.001 39.514
L13.051 39.519
L13.240 39.543
L13.297 39.551
L13.353 39.562
L13.414 39.575
L13.599 39.619
L13.654 39.633
L13.710 39.649
L13.754 39.664
L13.934 39.726
L13.988 39.746
L14.042 39.767
L14.100 39.793
L14.272 39.874
L14.324 39.900
L14.374 39.927
L14.415 39.951
L14.579 40.049
L14.628 40.079
L14.676 40.111
L14.723 40.145
L14.875 40.259
L14.920 40.294
L14.964 40.331
L15.008 40.370
L15.148 40.500
L15.189 40.540
L15.229 40.581
L15.263 40.618
L15.389 40.761
L15.426 40.805
L15.462 40.850
L15.497 40.897
L15.607 41.052
L15.639 41.099
L15.670 41.148
L15.697 41.194
L15.791 41.360
L15.818 41.410
L15.844 41.462
L15.867 41.513
L15.943 41.687
L15.965 41.740
L15.985 41.793
L16.003 41.846
L16.061 42.028
L16.078 42.083
L16.092 42.139
L16.104 42.190
L16.143 42.376
L16.154 42.433
L16.163 42.490
L16.169 42.542
L16.189 42.732
L16.194 42.789
L16.197 42.847
L16.198 42.905
L16.198 43.095
L16.197 43.152
L16.194 43.210
L16.189 43.268
L16.169 43.458
L16.162 43.515
L16.153 43.571
L16.143 43.624
L16.104 43.810
L16.091 43.866
L16.076 43.921
L16.061 43.972
L16.003 44.154
L15.985 44.208
L15.964 44.262
L15.943 44.313
L15.867 44.487
L15.843 44.540
L15.817 44.591
L15.791 44.640
L15.697 44.806
L15.668 44.856
L15.637 44.904
L15.607 44.948
L15.497 45.103
L15.463 45.149
L15.427 45.194
L15.389 45.239
L15.263 45.382
L15.224 45.424
L15.184 45.465
L15.148 45.500
L15.008 45.630
L14.965 45.668
L14.921 45.705
L14.875 45.741
L14.723 45.855
L14.676 45.889
L14.629 45.921
L14.579 45.951
L14.415 46.049
L14.366 46.078
L14.315 46.105
L14.272 46.126
L14.100 46.207
L14.048 46.230
L13.994 46.252
L13.934 46.274
L13.754 46.336
L13.700 46.354
L13.645 46.370
L13.599 46.381
L13.414 46.425
L13.358 46.438
L13.301 46.448
L13.240 46.457
L13.051 46.481
L12.994 46.487
L12.936 46.491
L12.886 46.493
L12.695 46.498
L12.638 46.499
L12.580 46.497
L12.531 46.495
L12.341 46.481
L12.284 46.475
L12.227 46.468
L12.167 46.458
L11.980 46.424
L11.924 46.413
L11.868 46.400
L11.808 46.384
L11.625 46.330
L11.570 46.312
L11.516 46.293
L11.475 46.277
L11.299 46.206
L11.246 46.184
L11.194 46.160
L11.137 46.130
L10.969 46.040
L10.919 46.012
L10.870 45.983
L10.829 45.956
L10.671 45.850
L10.624 45.817
L10.578 45.783
L10.536 45.750
L10.389 45.628
L10.346 45.590
L10.303 45.551
L10.259 45.507
L10.126 45.370
L10.087 45.328
L10.049 45.285
L10.017 45.245
L9.899 45.096
L9.864 45.051
L9.830 45.004
L9.798 44.955
L9.696 44.794
L9.666 44.745
L9.638 44.695
L9.614 44.649
L9.529 44.479
L9.504 44.427
L9.481 44.374
L9.461 44.322
L9.394 44.144
L9.374 44.090
L9.357 44.035
L9.343 43.985
L9.294 43.800
L9.280 43.745
L9.268 43.688
L9.258 43.630
L9.229 43.442
L9.222 43.385
L9.216 43.327
L9.212 43.277
L9.202 43.087
L9.200 43.029
L9.200 42.972
L9.202 42.913
L9.212 42.723
L9.216 42.666
L9.222 42.609
L9.229 42.558
L9.258 42.370
L9.268 42.314
L9.280 42.258
L9.294 42.200
L9.343 42.015
L9.359 41.959
L9.376 41.905
L9.394 41.856
L9.461 41.678
L9.482 41.624
L9.505 41.572
L9.529 41.521
L9.614 41.351
L9.641 41.300
L9.669 41.250
L9.696 41.206
L9.798 41.045
L9.830 40.997
L9.863 40.950
L9.899 40.904
L10.017 40.755
L10.053 40.710
L10.091 40.667
L10.126 40.630
L10.259 40.493
L10.300 40.452
L10.342 40.413
L10.389 40.372
L10.536 40.250
L10.581 40.214
L10.627 40.180
L10.671 40.150
L10.829 40.044
L10.877 40.013
L10.926 39.983
L10.969 39.960
L11.137 39.870
L11.188 39.843
L11.240 39.819
L11.299 39.794
L11.475 39.723
L11.528 39.702
L11.583 39.684
L11.625 39.670
L11.808 39.616
L11.863 39.601
L11.919 39.588
L11.980 39.576
L12.167 39.542
L12.224 39.532
L12.281 39.525
L12.341 39.519
L12.531 39.505
L12.588 39.502
L12.646 39.501
L12.695 39.502
M10.850 43.000
A1.850,1.850 0 1,0 14.550,43.000
A1.850,1.850 0 1,0 10.850,43.000
" 
fill="#e0e0e0" vector-effect="non-scaling-stroke" stroke="#000000" stroke-width="0.100mm" fpd:visible="front" />
<path d="
M12.695 39.502
L12.886 39.507
L12.944 39.509
L13.001 39.514
L13.051 39.519
L13.240 39.543
L13.297 39.551
L13.353 39.562
L13.414 39.575
L13.599 39.619
L13.654 39.633
L13.710 39.649
L13.754 39.664
L13.934 39.726
L13.988 39.746
L14.042 39.767
L14.100 39.793
L14.272 39.874
L14.324 39.900
L14.374 39.927
L14.415 39.951
L14.579 40.049
L14.628 40.079
L14.676 40.111
L14.723 40.145
L14.875 40.259
L14.920 40.294
L14.964 40.331
L15.008 40.370
L15.148 40.500
L15.189 40.540
L15.229 40.581
L15.263 40.618
L15.389 40.761
L15.426 40.805
L15.462 40.850
L15.497 40.897
L15.607 41.052
L15.639 41.099
L15.670 41.148
L15.697 41.194
L15.791 41.360
L15.818 41.410
L15.844 41.462
L15.867 41.513
L15.943 41.687
L15.965 41.740
L15.985 41.793
L16.003 41.846
L16.061 42.028
L16.078 42.083
L16.092 42.139
L16.104 42.190
L16.143 42.376
L16.154 42.433
L16.163 42.490
L16.169 42.542
L16.189 42.732
L16.194 42.789
L16.197 42.847
L16.198 42.905
L16.198 43.095
L16.197 43.152
L16.194 43.210
L16.189 43.268
L16.169 43.458
L16.162 43.515
L16.153 43.571
L16.143 43.624
L16.104 43.810
L16.091 43.866
L16.076 43.921
L16.061 43.972
L16.003 44.154
L15.985 44.208
L15.964 44.262
L15.943 44.313
L15.867 44.487
L15.843 44.540
L15.817 44.591
L15.791 44.640
L15.697 44.806
L15.668 44.856
L15.637 44.904
L15.607 44.948
L15.497 45.103
L15.463 45.149
L15.427 45.194
L15.389 45.239
L15.263 45.382
L15.224 45.424
L15.184 45.465
L15.148 45.500
L15.008 45.630
L14.965 45.668
L14.921 45.705
L14.875 45.741
L14.723 45.855
L14.676 45.889
L14.629 45.921
L14.579 45.951
L14.415 46.049
L14.366 46.078
L14.315 46.105
L14.272 46.126
L14.100 46.207
L14.048 46.230
L13.994 46.252
L13.934 46.274
L13.754 46.336
L13.700 46.354
L13.645 46.370
L13.599 46.381
L13.414 46.425
L13.358 46.438
L13.301 46.448
L13.240 46.457
L13.051 46.481
L12.994 46.487
L12.936 46.491
L12.886 46.493
L12.695 46.498
L12.638 46.499
L12.580 46.497
L12.531 46.495
L12.341 46.481
L12.284 46.475
L12.227 46.468
L12.167 46.458
L11.980 46.424
L11.924 46.413
L11.868 46.400
L11.808 46.384
L11.625 46.330
L11.570 46.312
L11.516 46.293
L11.475 46.277
L11.299 46.206
L11.246 46.184
L11.194 46.160
L11.137 46.130
L10.969 46.040
L10.919 46.012
L10.870 45.983
L10.829 45.956
L10.671 45.850
L10.624 45.817
L10.578 45.783
L10.536 45.750
L10.389 45.628
L10.346 45.590
L10.303 45.551
L10.259 45.507
L10.126 45.370
L10.087 45.328
L10.049 45.285
L10.017 45.245
L9.899 45.096
L9.864 45.051
L9.830 45.004
L9.798 44.955
L9.696 44.794
L9.666 44.745
L9.638 44.695
L9.614 44.649
L9.529 44.479
L9.504 44.427
L9.481 44.374
L9.461 44.322
L9.394 44.144
L9.374 44.090
L9.357 44.035
L9.343 43.985
L9.294 43.800
L9.280 43.745
L9.268 43.688
L9.258 43.630
L9.229 43.442
L9.222 43.385
L9.216 43.327
L9.212 43.277
L9.202 43.087
L9.200 43.029
L9.200 42.972
L9.202 42.913
L9.212 42.723
L9.216 42.666
L9.222 42.609
L9.229 42.558
L9.258 42.370
L9.268 42.314
L9.280 42.258
L9.294 42.200
L9.343 42.015
L9.359 41.959
L9.376 41.905
L9.394 41.856
L9.461 41.678
L9.482 41.624
L9.505 41.572
L9.529 41.521
L9.614 41.351
L9.641 41.300
L9.669 41.250
L9.696 41.206
L9.798 41.045
L9.830 40.997
L9.863 40.950
L9.899 40.904
L10.017 40.755
L10.053 40.710
L10.091 40.667
L10.126 40.630
L10.259 40.493
L10.300 40.452
L10.342 40.413
L10.389 40.372
L10.536 40.250
L10.581 40.214
L10.627 40.180
L10.671 40.150
L10.829 40.044
L10.877 40.013
L10.926 39.983
L10.969 39.960
L11.137 39.870
L11.188 39.843
L11.240 39.819
L11.299 39.794
L11.475 39.723
L11.528 39.702
L11.583 39.684
L11.625 39.670
L11.808 39.616
L11.863 39.601
L11.919 39.588
L11.980 39.576
L12.167 39.542
L12.224 39.532
L12.281 39.525
L12.341 39.519
L12.531 39.505
L12.588 39.502
L12.646 39.501
L12.695 39.502
" 
fill="none" vector-effect="non-scaling-stroke" stroke="#000000" stroke-width="0.100mm" fpd:visible="front" />
<path d="
M10.850 43.000
A1.850,1.850 0 1,0 14.550,43.000
A1.850,1.850 0 1,0 10.850,43.000
" 
fill="#ffffff" vector-effect="non-scaling-stroke" stroke="#000000" stroke-width="0.100mm" fpd:visible="front back" fpd:print_element="0" />
<path d="
M22.000 70.000
A6.000,6.000 0 1,0 34.000,70.000
A6.000,6.000 0 1,0 22.000,70.000
" 
fill="#ffffff" vector-effect="non-scaling-stroke" stroke="#000000" stroke-width="0.100mm" fpd:visible="front back" fpd:print_element="0" />
<path d="
M22.000 34.000
A6.000,6.000 0 1,0 34.000,34.000
A6.000,6.000 0 1,0 22.000,34.000
" 
fill="#ffffff" vector-effect="non-scaling-stroke" stroke="#000000" stroke-width="0.100mm" fpd:visible="front back" fpd:print_element="0" />
<path d="
M22.000 52.000
A6.000,6.000 0 1,0 34.000,52.000
A6.000,6.000 0 1,0 22.000,52.000
" 
fill="#ffffff" vector-effect="non-scaling-stroke" stroke="#000000" stroke-width="0.100mm" fpd:visible="front back" fpd:print_element="0" />
<path d="
M22.000 16.000
A6.000,6.000 0 1,0 34.000,16.000
A6.000,6.000 0 1,0 22.000,16.000
" 
fill="#ffffff" vector-effect="non-scaling-stroke" stroke="#000000" stroke-width="0.100mm" fpd:visible="front back" fpd:print_element="0" />
<path d="
M112.000 70.000
A6.000,6.000 0 1,0 124.000,70.000
A6.000,6.000 0 1,0 112.000,70.000
" 
fill="#ffffff" vector-effect="non-scaling-stroke" stroke="#000000" stroke-width="0.100mm" fpd:visible="front back" fpd:print_element="0" />
<path d="
M112.000 52.000
A6.000,6.000 0 1,0 124.000,52.000
A6.000,6.000 0 1,0 112.000,52.000
" 
fill="#ffffff" vector-effect="non-scaling-stroke" stroke="#000000" stroke-width="0.100mm" fpd:visible="front back" fpd:print_element="0" />
<path d="
M112.000 16.000
A6.000,6.000 0 1,0 124.000,16.000
A6.000,6.000 0 1,0 112.000,16.000
" 
fill="#ffffff" vector-effect="non-scaling-stroke" stroke="#000000" stroke-width="0.100mm" fpd:visible="front back" fpd:print_element="0" />
<path d="
M143.000 86.000
A3.000,3.000 0 0,0 146.000,83.000
L146.000 3.000
A3.000,3.000 0 0,0 143.000,0.000
L3.000 0.000
A3.000,3.000 0 0,0 0.000,3.000
L0.000 83.000
A3.000,3.000 0 0,0 3.000,86.000
L143.000 86.000
" 
fill="none" vector-effect="non-scaling-stroke" stroke="#000000" stroke-width="0.100mm" fpd:visible="front back" />
</g>
  <defs>
    <pattern id="revside-fill-808080" x="0" y="0" width="1.460" height="1.460" patternUnits="userSpaceOnUse">
      <line x1="0" y1="0" x2="1.460" y2="1.460000" style="stroke-width:0.146; stroke:#808080; stroke-dasharray:none;" />
      <line x1="0" y1="1.460" x2="1.460" y2="0" style="stroke-width:0.146; stroke:#808080; stroke-dasharray:none;" />
    </pattern>
  </defs>
</svg>
