<?xml version="1.0" standalone="no"?>
<!DOCTYPE svg PUBLIC "-//W3C//DTD SVG 1.1//EN" 
  "http://www.w3.org/Graphics/SVG/1.1/DTD/svg11.dtd">
<svg width="483.000mm" height="43.600mm" version="1.1"
     viewBox="0 0 483.000 43.600"
     xmlns="http://www.w3.org/2000/svg"  xmlns:xlink="http://www.w3.org/1999/xlink" 
     xmlns:fpd="http://www.schaeffer-ag.de">
  <desc>Created with the Front Panel Designer by the export of the file 'Front.fpd'.</desc>
  <defs>
    <pattern id="revside-fill" x="1" y="1" width="4.830" height="4.830" patternUnits="userSpaceOnUse">
      <line x1="0" y1="0" x2="4.830" y2="4.830" style="stroke-width:0.483; stroke:black; stroke-dasharray:none;" />
      <line x1="0" y1="4.830" x2="4.830" y2="0" style="stroke-width:0.483; stroke:black; stroke-dasharray:none;" />
    </pattern>
    <pattern id="revside-fill-silver" x="1" y="1" width="4.830" height="4.830" patternUnits="userSpaceOnUse">
      <line x1="0" y1="0" x2="4.830" y2="4.830" style="stroke-width:0.483; stroke:#e0e0e0; stroke-dasharray:none;" />
      <line x1="0" y1="4.830" x2="4.830" y2="0" style="stroke-width:0.483; stroke:#e0e0e0; stroke-dasharray:none;" />
    </pattern>
  </defs>
<g transform="scale(1,-1) translate( -0.000, -43.600)" 
   fill-rule="evenodd"
   style="stroke-linecap:round; stroke-linejoin:round; stroke-opacity:1.0; stroke-opacity:1.0;">
<path d="
M481.000 43.600
A2.000,2.000 0 0,0 483.000,41.600
L483.000 2.000
A2.000,2.000 0 0,0 481.000,0.000
L2.000 0.000
A2.000,2.000 0 0,0 0.000,2.000
L0.000 41.600
A2.000,2.000 0 0,0 2.000,43.600
L481.000 43.600
" 
fill="#0f0f0f" vector-effect="non-scaling-stroke" stroke="#000000" stroke-width="0.100mm" fpd:visible="front back" />
<path d="
M166.000 30.550
L176.000 30.550
L176.000 40.550
L166.000 40.550
L166.000 30.550
" 
fill="none" vector-effect="non-scaling-stroke" stroke="#6c85b8" stroke-width="0.200mm" fpd:visible="front" fpd:print_element="0" fpd:engraving="1" />
<path d="
M307.000 30.550
L317.000 30.550
L317.000 40.550
L307.000 40.550
L307.000 30.550
" 
fill="none" vector-effect="non-scaling-stroke" stroke="#6c85b8" stroke-width="0.200mm" fpd:visible="front" fpd:print_element="0" fpd:engraving="1" />
<path d="
M166.000 3.050
L176.000 3.050
L176.000 13.050
L166.000 13.050
L166.000 3.050
" 
fill="none" vector-effect="non-scaling-stroke" stroke="#6c85b8" stroke-width="0.200mm" fpd:visible="front" fpd:print_element="0" fpd:engraving="1" />
<path d="
M307.000 3.050
L317.000 3.050
L317.000 13.050
L307.000 13.050
L307.000 3.050
" 
fill="none" vector-effect="non-scaling-stroke" stroke="#6c85b8" stroke-width="0.200mm" fpd:visible="front" fpd:print_element="0" fpd:engraving="1" />
<path d="
M33.000 43.050
L33.000 41.501
L30.000 41.501
L30.000 40.550
L453.000 40.550
L453.000 41.501
L450.000 41.501
L450.000 43.050
L33.000 43.050
" 
fill="none" vector-effect="non-scaling-stroke" stroke="#6c85b8" stroke-width="0.200mm" fpd:visible="front" fpd:print_element="0" fpd:engraving="1" />
<path d="
M240.126 42.395
L240.919 42.395
L240.522 42.395
L240.522 41.205
" 
fill="none" vector-effect="non-scaling-stroke" stroke="#6c85b8" stroke-width="0.200mm" fpd:visible="front" fpd:print_element="0" fpd:engraving="1" />
<path d="
M241.237 41.536
L241.237 41.668
A0.331,0.331 0 0,0 241.898,41.668
L241.898 41.536
A0.331,0.331 0 0,0 241.237,41.536
" 
fill="none" vector-effect="non-scaling-stroke" stroke="#6c85b8" stroke-width="0.200mm" fpd:visible="front" fpd:print_element="0" fpd:engraving="1" />
<path d="
M242.215 40.808
L242.215 41.668
A0.331,0.331 0 0,0 242.876,41.668
L242.876 41.536
A0.331,0.331 0 0,0 242.215,41.536
L242.215 41.998
" 
fill="none" vector-effect="non-scaling-stroke" stroke="#6c85b8" stroke-width="0.200mm" fpd:visible="front" fpd:print_element="0" fpd:engraving="1" />
<path d="
M450.000 0.550
L450.000 2.099
L453.000 2.099
L453.000 3.050
L30.000 3.050
L30.000 2.099
L33.000 2.099
L33.000 0.550
L450.000 0.550
" 
fill="none" vector-effect="non-scaling-stroke" stroke="#6c85b8" stroke-width="0.200mm" fpd:visible="front" fpd:print_element="0" fpd:engraving="1" />
<path d="
M239.240 1.800
A0.297,0.297 0 0,1 239.240,2.395
L238.804 2.395
L238.804 1.205
L239.306 1.205
A0.298,0.298 0 0,1 239.306,1.800
L238.804 1.800
" 
fill="none" vector-effect="non-scaling-stroke" stroke="#6c85b8" stroke-width="0.200mm" fpd:visible="front" fpd:print_element="0" fpd:engraving="1" />
<path d="
M239.915 1.536
L239.915 1.668
A0.331,0.331 0 0,0 240.576,1.668
L240.576 1.536
A0.331,0.331 0 0,0 239.915,1.536
" 
fill="none" vector-effect="non-scaling-stroke" stroke="#6c85b8" stroke-width="0.200mm" fpd:visible="front" fpd:print_element="0" fpd:engraving="1" />
<path d="
M241.013 2.395
L241.013 1.998
L241.211 1.998
L240.880 1.998
L241.013 1.998
L241.013 1.364
A0.161,0.161 0 0,1 241.145,1.205
" 
fill="none" vector-effect="non-scaling-stroke" stroke="#6c85b8" stroke-width="0.200mm" fpd:visible="front" fpd:print_element="0" fpd:engraving="1" />
<path d="
M241.648 2.396
L241.648 1.999
L241.846 1.999
L241.515 1.999
L241.648 1.999
L241.648 1.365
A0.161,0.161 0 0,1 241.780,1.206
" 
fill="none" vector-effect="non-scaling-stroke" stroke="#6c85b8" stroke-width="0.200mm" fpd:visible="front" fpd:print_element="0" fpd:engraving="1" />
<path d="
M242.163 1.538
L242.163 1.670
A0.331,0.331 0 0,0 242.824,1.670
L242.824 1.538
A0.331,0.331 0 0,0 242.163,1.538
" 
fill="none" vector-effect="non-scaling-stroke" stroke="#6c85b8" stroke-width="0.200mm" fpd:visible="front" fpd:print_element="0" fpd:engraving="1" />
<path d="
M243.141 1.207
L243.141 2.000
L243.141 1.736
A0.264,0.264 0 0,0 243.670,1.736
L243.670 1.207
L243.670 1.736
A0.264,0.264 0 0,0 244.198,1.736
L244.198 1.207
" 
fill="none" vector-effect="non-scaling-stroke" stroke="#6c85b8" stroke-width="0.200mm" fpd:visible="front" fpd:print_element="0" fpd:engraving="1" />
<path d="
M25.000 42.800
L33.000 42.800
L33.000 41.600
L30.000 41.600
L30.000 40.000
L33.000 40.000
L33.000 38.800
L30.000 38.800
L30.000 37.800
L29.000 37.800
L28.000 38.800
L28.500 39.300
L27.500 40.300
L27.000 39.800
L26.500 40.300
L25.500 39.300
L26.000 38.800
L25.500 38.300
L26.500 37.300
L27.000 37.800
L28.000 36.800
L28.000 35.800
L24.400 35.800
L24.400 34.000
L26.500 34.000
L26.500 32.500
L24.400 32.500
L24.400 30.000
L26.500 30.000
L26.500 28.500
L24.400 28.500
L24.400 26.700
L26.500 26.700
L26.500 22.700
L24.400 22.700
L24.400 20.900
L26.500 20.900
L26.500 16.900
L24.400 16.900
L24.400 15.100
L26.500 15.100
L26.500 13.600
L24.400 13.600
L24.400 11.100
L26.500 11.100
L26.500 9.600
L24.400 9.600
L24.400 7.800
L28.000 7.800
L28.000 6.800
L27.000 5.800
L26.500 6.300
L25.500 5.300
L26.000 4.800
L25.500 4.300
L26.500 3.300
L27.000 3.800
L27.500 3.300
L28.500 4.300
L28.000 4.800
L29.000 5.800
L30.000 5.800
L30.000 4.800
L33.000 4.800
L33.000 3.600
L30.000 3.600
L30.000 2.000
L33.000 2.000
L33.000 0.800
L25.000 0.800
A2.000,2.000 0 0,0 23.000,2.800
L23.000 40.800
A2.000,2.000 0 0,0 25.000,42.800
" 
fill="none" vector-effect="non-scaling-stroke" stroke="#6c85b8" stroke-width="0.200mm" fpd:visible="front" fpd:print_element="0" fpd:engraving="1" />
<path d="
M458.000 42.800
L450.000 42.800
L450.000 41.600
L453.000 41.600
L453.000 40.000
L450.000 40.000
L450.000 38.800
L453.000 38.800
L453.000 37.800
L454.000 37.800
L455.000 38.800
L454.500 39.300
L455.500 40.300
L456.000 39.800
L456.500 40.300
L457.500 39.300
L457.000 38.800
L457.500 38.300
L456.500 37.300
L456.000 37.800
L455.000 36.800
L455.000 35.800
L458.600 35.800
L458.600 34.000
L456.500 34.000
L456.500 32.500
L458.600 32.500
L458.600 30.000
L456.500 30.000
L456.500 28.500
L458.600 28.500
L458.600 26.700
L456.500 26.700
L456.500 22.700
L458.600 22.700
L458.600 20.900
L456.500 20.900
L456.500 16.900
L458.600 16.900
L458.600 15.100
L456.500 15.100
L456.500 13.600
L458.600 13.600
L458.600 11.100
L456.500 11.100
L456.500 9.600
L458.600 9.600
L458.600 7.800
L455.000 7.800
L455.000 6.800
L456.000 5.800
L456.500 6.300
L457.500 5.300
L457.000 4.800
L457.500 4.300
L456.500 3.300
L456.000 3.800
L455.500 3.300
L454.500 4.300
L455.000 4.800
L454.000 5.800
L453.000 5.800
L453.000 4.800
L450.000 4.800
L450.000 3.600
L453.000 3.600
L453.000 2.000
L450.000 2.000
L450.000 0.800
L458.000 0.800
A2.000,2.000 0 0,1 460.000,2.800
L460.000 40.800
A2.000,2.000 0 0,1 458.000,42.800
" 
fill="none" vector-effect="non-scaling-stroke" stroke="#6c85b8" stroke-width="0.200mm" fpd:visible="front" fpd:print_element="0" fpd:engraving="1" />
<path d="
M174.500 34.050
A3.500,3.500 0 1,0 167.500,34.050
A3.500,3.500 0 1,0 174.500,34.050
" 
fill="url(#revside-fill-silver)" vector-effect="non-scaling-stroke" stroke="#00d000" stroke-width="0.100mm"  stroke-dasharray="1.5 1.5" fpd:visible="back" fpd:print_element="0" fpd:bolt="GU30 8000" />
<path d="
M172.500 34.050
A1.500,1.500 0 1,0 169.500,34.050
A1.500,1.500 0 1,0 172.500,34.050
" 
fill="url(#revside-fill-808080)" vector-effect="non-scaling-stroke" stroke="#00d000" stroke-width="0.100mm"  stroke-dasharray="1.5 1.5" fpd:visible="back" fpd:print_element="0" fpd:bolt="GU30 8000" />
<path d="
M315.500 34.050
A3.500,3.500 0 1,0 308.500,34.050
A3.500,3.500 0 1,0 315.500,34.050
" 
fill="url(#revside-fill-silver)" vector-effect="non-scaling-stroke" stroke="#00d000" stroke-width="0.100mm"  stroke-dasharray="1.5 1.5" fpd:visible="back" fpd:print_element="0" fpd:bolt="GU30 8000" />
<path d="
M313.500 34.050
A1.500,1.500 0 1,0 310.500,34.050
A1.500,1.500 0 1,0 313.500,34.050
" 
fill="url(#revside-fill-808080)" vector-effect="non-scaling-stroke" stroke="#00d000" stroke-width="0.100mm"  stroke-dasharray="1.5 1.5" fpd:visible="back" fpd:print_element="0" fpd:bolt="GU30 8000" />
<path d="
M174.500 9.550
A3.500,3.500 0 1,0 167.500,9.550
A3.500,3.500 0 1,0 174.500,9.550
" 
fill="url(#revside-fill-silver)" vector-effect="non-scaling-stroke" stroke="#00d000" stroke-width="0.100mm"  stroke-dasharray="1.5 1.5" fpd:visible="back" fpd:print_element="0" fpd:bolt="GU30 8000" />
<path d="
M172.500 9.550
A1.500,1.500 0 1,0 169.500,9.550
A1.500,1.500 0 1,0 172.500,9.550
" 
fill="url(#revside-fill-808080)" vector-effect="non-scaling-stroke" stroke="#00d000" stroke-width="0.100mm"  stroke-dasharray="1.5 1.5" fpd:visible="back" fpd:print_element="0" fpd:bolt="GU30 8000" />
<path d="
M315.500 9.550
A3.500,3.500 0 1,0 308.500,9.550
A3.500,3.500 0 1,0 315.500,9.550
" 
fill="url(#revside-fill-silver)" vector-effect="non-scaling-stroke" stroke="#00d000" stroke-width="0.100mm"  stroke-dasharray="1.5 1.5" fpd:visible="back" fpd:print_element="0" fpd:bolt="GU30 8000" />
<path d="
M313.500 9.550
A1.500,1.500 0 1,0 310.500,9.550
A1.500,1.500 0 1,0 313.500,9.550
" 
fill="url(#revside-fill-808080)" vector-effect="non-scaling-stroke" stroke="#00d000" stroke-width="0.100mm"  stroke-dasharray="1.5 1.5" fpd:visible="back" fpd:print_element="0" fpd:bolt="GU30 8000" />
<path d="
M159.666 21.800
A3.500,3.500 0 1,0 152.666,21.800
A3.500,3.500 0 1,0 159.666,21.800
" 
fill="url(#revside-fill-silver)" vector-effect="non-scaling-stroke" stroke="#00d000" stroke-width="0.100mm"  stroke-dasharray="1.5 1.5" fpd:visible="back" fpd:print_element="0" fpd:bolt="GO30 8000" />
<path d="
M158.666 21.800
A2.500,2.500 0 1,0 153.666,21.800
A2.500,2.500 0 1,0 158.666,21.800
" 
fill="url(#revside-fill-808080)" vector-effect="non-scaling-stroke" stroke="#00d000" stroke-width="0.100mm"  stroke-dasharray="1.5 1.5" fpd:visible="back" fpd:print_element="0" fpd:bolt="GO30 8000" />
<path d="
M157.666 21.800
A1.500,1.500 0 1,0 154.666,21.800
A1.500,1.500 0 1,0 157.666,21.800
" 
fill="url(#revside-fill-silver)" vector-effect="non-scaling-stroke" stroke="#00d000" stroke-width="0.100mm"  stroke-dasharray="1.5 1.5" fpd:visible="back" fpd:print_element="0" fpd:bolt="GO30 8000" />
<path d="
M152.046 35.770
A3.500,3.500 0 1,0 145.046,35.770
A3.500,3.500 0 1,0 152.046,35.770
" 
fill="url(#revside-fill-silver)" vector-effect="non-scaling-stroke" stroke="#00d000" stroke-width="0.100mm"  stroke-dasharray="1.5 1.5" fpd:visible="back" fpd:print_element="0" fpd:bolt="GO30 8000" />
<path d="
M151.046 35.770
A2.500,2.500 0 1,0 146.046,35.770
A2.500,2.500 0 1,0 151.046,35.770
" 
fill="url(#revside-fill-808080)" vector-effect="non-scaling-stroke" stroke="#00d000" stroke-width="0.100mm"  stroke-dasharray="1.5 1.5" fpd:visible="back" fpd:print_element="0" fpd:bolt="GO30 8000" />
<path d="
M150.046 35.770
A1.500,1.500 0 1,0 147.046,35.770
A1.500,1.500 0 1,0 150.046,35.770
" 
fill="url(#revside-fill-silver)" vector-effect="non-scaling-stroke" stroke="#00d000" stroke-width="0.100mm"  stroke-dasharray="1.5 1.5" fpd:visible="back" fpd:print_element="0" fpd:bolt="GO30 8000" />
<path d="
M151.746 7.830
A3.500,3.500 0 1,0 144.746,7.830
A3.500,3.500 0 1,0 151.746,7.830
" 
fill="url(#revside-fill-silver)" vector-effect="non-scaling-stroke" stroke="#00d000" stroke-width="0.100mm"  stroke-dasharray="1.5 1.5" fpd:visible="back" fpd:print_element="0" fpd:bolt="GO30 8000" />
<path d="
M150.746 7.830
A2.500,2.500 0 1,0 145.746,7.830
A2.500,2.500 0 1,0 150.746,7.830
" 
fill="url(#revside-fill-808080)" vector-effect="non-scaling-stroke" stroke="#00d000" stroke-width="0.100mm"  stroke-dasharray="1.5 1.5" fpd:visible="back" fpd:print_element="0" fpd:bolt="GO30 8000" />
<path d="
M149.746 7.830
A1.500,1.500 0 1,0 146.746,7.830
A1.500,1.500 0 1,0 149.746,7.830
" 
fill="url(#revside-fill-silver)" vector-effect="non-scaling-stroke" stroke="#00d000" stroke-width="0.100mm"  stroke-dasharray="1.5 1.5" fpd:visible="back" fpd:print_element="0" fpd:bolt="GO30 8000" />
<path d="
M83.716 21.800
A3.500,3.500 0 1,0 76.716,21.800
A3.500,3.500 0 1,0 83.716,21.800
" 
fill="url(#revside-fill-silver)" vector-effect="non-scaling-stroke" stroke="#00d000" stroke-width="0.100mm"  stroke-dasharray="1.5 1.5" fpd:visible="back" fpd:print_element="0" fpd:bolt="GU30 14000" />
<path d="
M81.716 21.800
A1.500,1.500 0 1,0 78.716,21.800
A1.500,1.500 0 1,0 81.716,21.800
" 
fill="url(#revside-fill-808080)" vector-effect="non-scaling-stroke" stroke="#00d000" stroke-width="0.100mm"  stroke-dasharray="1.5 1.5" fpd:visible="back" fpd:print_element="0" fpd:bolt="GU30 14000" />
<path d="
M128.716 21.800
A3.500,3.500 0 1,0 121.716,21.800
A3.500,3.500 0 1,0 128.716,21.800
" 
fill="url(#revside-fill-silver)" vector-effect="non-scaling-stroke" stroke="#00d000" stroke-width="0.100mm"  stroke-dasharray="1.5 1.5" fpd:visible="back" fpd:print_element="0" fpd:bolt="GU30 14000" />
<path d="
M126.716 21.800
A1.500,1.500 0 1,0 123.716,21.800
A1.500,1.500 0 1,0 126.716,21.800
" 
fill="url(#revside-fill-808080)" vector-effect="non-scaling-stroke" stroke="#00d000" stroke-width="0.100mm"  stroke-dasharray="1.5 1.5" fpd:visible="back" fpd:print_element="0" fpd:bolt="GU30 14000" />
<path d="
M446.216 21.800
A3.500,3.500 0 1,0 439.216,21.800
A3.500,3.500 0 1,0 446.216,21.800
" 
fill="url(#revside-fill-silver)" vector-effect="non-scaling-stroke" stroke="#00d000" stroke-width="0.100mm"  stroke-dasharray="1.5 1.5" fpd:visible="back" fpd:print_element="0" fpd:bolt="GU30 14000" />
<path d="
M444.216 21.800
A1.500,1.500 0 1,0 441.216,21.800
A1.500,1.500 0 1,0 444.216,21.800
" 
fill="url(#revside-fill-808080)" vector-effect="non-scaling-stroke" stroke="#00d000" stroke-width="0.100mm"  stroke-dasharray="1.5 1.5" fpd:visible="back" fpd:print_element="0" fpd:bolt="GU30 14000" />
<path d="
M396.216 21.800
A3.500,3.500 0 1,0 389.216,21.800
A3.500,3.500 0 1,0 396.216,21.800
" 
fill="url(#revside-fill-silver)" vector-effect="non-scaling-stroke" stroke="#00d000" stroke-width="0.100mm"  stroke-dasharray="1.5 1.5" fpd:visible="back" fpd:print_element="0" fpd:bolt="GU30 14000" />
<path d="
M394.216 21.800
A1.500,1.500 0 1,0 391.216,21.800
A1.500,1.500 0 1,0 394.216,21.800
" 
fill="url(#revside-fill-808080)" vector-effect="non-scaling-stroke" stroke="#00d000" stroke-width="0.100mm"  stroke-dasharray="1.5 1.5" fpd:visible="back" fpd:print_element="0" fpd:bolt="GU30 14000" />
<path d="
M456.147 35.603
L456.201 35.606
L456.255 35.611
L456.438 35.631
L456.492 35.638
L456.546 35.647
L456.600 35.658
L456.780 35.698
L456.834 35.711
L456.886 35.725
L456.937 35.741
L457.111 35.800
L457.162 35.819
L457.213 35.839
L457.257 35.859
L457.424 35.936
L457.473 35.960
L457.522 35.985
L457.569 36.012
L457.727 36.107
L457.819 36.167
L457.858 36.196
L458.005 36.307
L458.048 36.341
L458.090 36.376
L458.137 36.419
L458.270 36.546
L458.309 36.585
L458.346 36.625
L458.377 36.660
L458.496 36.800
L458.531 36.842
L458.564 36.886
L458.594 36.928
L458.698 37.081
L458.727 37.127
L458.756 37.174
L458.782 37.221
L458.868 37.383
L458.893 37.432
L458.916 37.481
L458.937 37.532
L459.005 37.703
L459.024 37.754
L459.042 37.806
L459.057 37.859
L459.106 38.037
L459.120 38.090
L459.131 38.143
L459.140 38.190
L459.170 38.371
L459.178 38.425
L459.184 38.479
L459.188 38.535
L459.198 38.719
L459.200 38.773
L459.200 38.828
L459.198 38.881
L459.188 39.065
L459.184 39.120
L459.178 39.174
L459.170 39.229
L459.140 39.410
L459.130 39.464
L459.118 39.518
L459.106 39.563
L459.057 39.741
L459.042 39.794
L459.024 39.846
L459.005 39.897
L458.937 40.068
L458.916 40.119
L458.893 40.168
L458.868 40.217
L458.782 40.379
L458.755 40.427
L458.727 40.474
L458.698 40.519
L458.594 40.672
L458.562 40.717
L458.529 40.761
L458.496 40.800
L458.377 40.940
L458.341 40.982
L458.303 41.021
L458.270 41.054
L458.137 41.181
L458.097 41.218
L458.055 41.254
L458.005 41.293
L457.858 41.404
L457.814 41.436
L457.768 41.467
L457.727 41.493
L457.569 41.588
L457.521 41.615
L457.473 41.640
L457.424 41.664
L457.257 41.741
L457.207 41.763
L457.156 41.783
L457.111 41.800
L456.937 41.859
L456.885 41.875
L456.832 41.890
L456.780 41.902
L456.600 41.942
L456.547 41.953
L456.493 41.962
L456.438 41.969
L456.255 41.989
L456.200 41.994
L456.146 41.997
L456.092 41.998
L455.908 41.998
L455.853 41.997
L455.799 41.994
L455.745 41.989
L455.562 41.969
L455.508 41.962
L455.454 41.953
L455.400 41.942
L455.220 41.902
L455.166 41.889
L455.114 41.875
L455.063 41.859
L454.889 41.800
L454.838 41.781
L454.787 41.761
L454.743 41.741
L454.576 41.664
L454.527 41.640
L454.478 41.615
L454.431 41.588
L454.273 41.493
L454.181 41.433
L454.142 41.404
L453.995 41.293
L453.952 41.259
L453.910 41.224
L453.863 41.181
L453.730 41.054
L453.691 41.015
L453.654 40.975
L453.623 40.940
L453.504 40.800
L453.469 40.758
L453.436 40.714
L453.406 40.672
L453.302 40.519
L453.273 40.473
L453.244 40.426
L453.218 40.379
L453.132 40.217
L453.107 40.168
L453.084 40.119
L453.063 40.068
L452.995 39.897
L452.976 39.846
L452.958 39.794
L452.943 39.741
L452.894 39.563
L452.880 39.510
L452.869 39.457
L452.860 39.410
L452.830 39.229
L452.822 39.175
L452.816 39.121
L452.812 39.065
L452.802 38.881
L452.800 38.827
L452.800 38.772
L452.802 38.719
L452.812 38.535
L452.816 38.480
L452.822 38.426
L452.830 38.371
L452.860 38.190
L452.870 38.136
L452.882 38.082
L452.894 38.037
L452.943 37.859
L452.958 37.806
L452.976 37.754
L452.995 37.703
L453.063 37.532
L453.084 37.481
L453.107 37.432
L453.132 37.383
L453.218 37.221
L453.245 37.173
L453.273 37.126
L453.302 37.081
L453.406 36.928
L453.438 36.883
L453.471 36.839
L453.504 36.800
L453.623 36.660
L453.659 36.618
L453.697 36.579
L453.730 36.546
L453.863 36.419
L453.903 36.382
L453.945 36.346
L453.995 36.307
L454.142 36.196
L454.186 36.164
L454.232 36.133
L454.273 36.107
L454.431 36.012
L454.479 35.985
L454.527 35.960
L454.576 35.936
L454.743 35.859
L454.793 35.837
L454.844 35.817
L454.889 35.800
L455.063 35.741
L455.115 35.725
L455.168 35.710
L455.220 35.698
L455.400 35.658
L455.453 35.647
L455.507 35.638
L455.562 35.631
L455.745 35.611
L455.800 35.606
L455.854 35.603
L455.908 35.602
L456.092 35.602
L456.147 35.603
M454.300 38.800
A1.700,1.700 0 1,0 457.700,38.800
A1.700,1.700 0 1,0 454.300,38.800
" 
fill="#e0e0e0" vector-effect="non-scaling-stroke" stroke="#000000" stroke-width="0.100mm" fpd:visible="front" />
<path d="
M456.147 35.603
L456.201 35.606
L456.255 35.611
L456.438 35.631
L456.492 35.638
L456.546 35.647
L456.600 35.658
L456.780 35.698
L456.834 35.711
L456.886 35.725
L456.937 35.741
L457.111 35.800
L457.162 35.819
L457.213 35.839
L457.257 35.859
L457.424 35.936
L457.473 35.960
L457.522 35.985
L457.569 36.012
L457.727 36.107
L457.819 36.167
L457.858 36.196
L458.005 36.307
L458.048 36.341
L458.090 36.376
L458.137 36.419
L458.270 36.546
L458.309 36.585
L458.346 36.625
L458.377 36.660
L458.496 36.800
L458.531 36.842
L458.564 36.886
L458.594 36.928
L458.698 37.081
L458.727 37.127
L458.756 37.174
L458.782 37.221
L458.868 37.383
L458.893 37.432
L458.916 37.481
L458.937 37.532
L459.005 37.703
L459.024 37.754
L459.042 37.806
L459.057 37.859
L459.106 38.037
L459.120 38.090
L459.131 38.143
L459.140 38.190
L459.170 38.371
L459.178 38.425
L459.184 38.479
L459.188 38.535
L459.198 38.719
L459.200 38.773
L459.200 38.828
L459.198 38.881
L459.188 39.065
L459.184 39.120
L459.178 39.174
L459.170 39.229
L459.140 39.410
L459.130 39.464
L459.118 39.518
L459.106 39.563
L459.057 39.741
L459.042 39.794
L459.024 39.846
L459.005 39.897
L458.937 40.068
L458.916 40.119
L458.893 40.168
L458.868 40.217
L458.782 40.379
L458.755 40.427
L458.727 40.474
L458.698 40.519
L458.594 40.672
L458.562 40.717
L458.529 40.761
L458.496 40.800
L458.377 40.940
L458.341 40.982
L458.303 41.021
L458.270 41.054
L458.137 41.181
L458.097 41.218
L458.055 41.254
L458.005 41.293
L457.858 41.404
L457.814 41.436
L457.768 41.467
L457.727 41.493
L457.569 41.588
L457.521 41.615
L457.473 41.640
L457.424 41.664
L457.257 41.741
L457.207 41.763
L457.156 41.783
L457.111 41.800
L456.937 41.859
L456.885 41.875
L456.832 41.890
L456.780 41.902
L456.600 41.942
L456.547 41.953
L456.493 41.962
L456.438 41.969
L456.255 41.989
L456.200 41.994
L456.146 41.997
L456.092 41.998
L455.908 41.998
L455.853 41.997
L455.799 41.994
L455.745 41.989
L455.562 41.969
L455.508 41.962
L455.454 41.953
L455.400 41.942
L455.220 41.902
L455.166 41.889
L455.114 41.875
L455.063 41.859
L454.889 41.800
L454.838 41.781
L454.787 41.761
L454.743 41.741
L454.576 41.664
L454.527 41.640
L454.478 41.615
L454.431 41.588
L454.273 41.493
L454.181 41.433
L454.142 41.404
L453.995 41.293
L453.952 41.259
L453.910 41.224
L453.863 41.181
L453.730 41.054
L453.691 41.015
L453.654 40.975
L453.623 40.940
L453.504 40.800
L453.469 40.758
L453.436 40.714
L453.406 40.672
L453.302 40.519
L453.273 40.473
L453.244 40.426
L453.218 40.379
L453.132 40.217
L453.107 40.168
L453.084 40.119
L453.063 40.068
L452.995 39.897
L452.976 39.846
L452.958 39.794
L452.943 39.741
L452.894 39.563
L452.880 39.510
L452.869 39.457
L452.860 39.410
L452.830 39.229
L452.822 39.175
L452.816 39.121
L452.812 39.065
L452.802 38.881
L452.800 38.827
L452.800 38.772
L452.802 38.719
L452.812 38.535
L452.816 38.480
L452.822 38.426
L452.830 38.371
L452.860 38.190
L452.870 38.136
L452.882 38.082
L452.894 38.037
L452.943 37.859
L452.958 37.806
L452.976 37.754
L452.995 37.703
L453.063 37.532
L453.084 37.481
L453.107 37.432
L453.132 37.383
L453.218 37.221
L453.245 37.173
L453.273 37.126
L453.302 37.081
L453.406 36.928
L453.438 36.883
L453.471 36.839
L453.504 36.800
L453.623 36.660
L453.659 36.618
L453.697 36.579
L453.730 36.546
L453.863 36.419
L453.903 36.382
L453.945 36.346
L453.995 36.307
L454.142 36.196
L454.186 36.164
L454.232 36.133
L454.273 36.107
L454.431 36.012
L454.479 35.985
L454.527 35.960
L454.576 35.936
L454.743 35.859
L454.793 35.837
L454.844 35.817
L454.889 35.800
L455.063 35.741
L455.115 35.725
L455.168 35.710
L455.220 35.698
L455.400 35.658
L455.453 35.647
L455.507 35.638
L455.562 35.631
L455.745 35.611
L455.800 35.606
L455.854 35.603
L455.908 35.602
L456.092 35.602
L456.147 35.603
" 
fill="none" vector-effect="non-scaling-stroke" stroke="#000000" stroke-width="0.100mm" fpd:visible="front" />
<path d="
M454.300 38.800
A1.700,1.700 0 1,0 457.700,38.800
A1.700,1.700 0 1,0 454.300,38.800
" 
fill="#ffffff" vector-effect="non-scaling-stroke" stroke="#000000" stroke-width="0.100mm" fpd:visible="front back" fpd:print_element="0" />
<path d="
M27.147 35.603
L27.201 35.606
L27.255 35.611
L27.438 35.631
L27.492 35.638
L27.546 35.647
L27.600 35.658
L27.780 35.698
L27.834 35.711
L27.886 35.725
L27.937 35.741
L28.111 35.800
L28.162 35.819
L28.213 35.839
L28.257 35.859
L28.424 35.936
L28.473 35.960
L28.522 35.985
L28.569 36.012
L28.727 36.107
L28.819 36.167
L28.858 36.196
L29.005 36.307
L29.048 36.341
L29.090 36.376
L29.137 36.419
L29.270 36.546
L29.309 36.585
L29.346 36.625
L29.377 36.660
L29.496 36.800
L29.531 36.842
L29.564 36.886
L29.594 36.928
L29.698 37.081
L29.727 37.127
L29.756 37.174
L29.782 37.221
L29.868 37.383
L29.893 37.432
L29.916 37.481
L29.937 37.532
L30.005 37.703
L30.024 37.754
L30.042 37.806
L30.057 37.859
L30.106 38.037
L30.120 38.090
L30.131 38.143
L30.140 38.190
L30.170 38.371
L30.178 38.425
L30.184 38.479
L30.188 38.535
L30.198 38.719
L30.200 38.773
L30.200 38.828
L30.198 38.881
L30.188 39.065
L30.184 39.120
L30.178 39.174
L30.170 39.229
L30.140 39.410
L30.130 39.464
L30.118 39.518
L30.106 39.563
L30.057 39.741
L30.042 39.794
L30.024 39.846
L30.005 39.897
L29.937 40.068
L29.916 40.119
L29.893 40.168
L29.868 40.217
L29.782 40.379
L29.755 40.427
L29.727 40.474
L29.698 40.519
L29.594 40.672
L29.562 40.717
L29.529 40.761
L29.496 40.800
L29.377 40.940
L29.341 40.982
L29.303 41.021
L29.270 41.054
L29.137 41.181
L29.097 41.218
L29.055 41.254
L29.005 41.293
L28.858 41.404
L28.814 41.436
L28.768 41.467
L28.727 41.493
L28.569 41.588
L28.521 41.615
L28.473 41.640
L28.424 41.664
L28.257 41.741
L28.207 41.763
L28.156 41.783
L28.111 41.800
L27.937 41.859
L27.885 41.875
L27.832 41.890
L27.780 41.902
L27.600 41.942
L27.547 41.953
L27.493 41.962
L27.438 41.969
L27.255 41.989
L27.200 41.994
L27.146 41.997
L27.092 41.998
L26.908 41.998
L26.853 41.997
L26.799 41.994
L26.745 41.989
L26.562 41.969
L26.508 41.962
L26.454 41.953
L26.400 41.942
L26.220 41.902
L26.166 41.889
L26.114 41.875
L26.063 41.859
L25.889 41.800
L25.838 41.781
L25.787 41.761
L25.743 41.741
L25.576 41.664
L25.527 41.640
L25.478 41.615
L25.431 41.588
L25.273 41.493
L25.181 41.433
L25.142 41.404
L24.995 41.293
L24.952 41.259
L24.910 41.224
L24.863 41.181
L24.730 41.054
L24.691 41.015
L24.654 40.975
L24.623 40.940
L24.504 40.800
L24.469 40.758
L24.436 40.714
L24.406 40.672
L24.302 40.519
L24.273 40.473
L24.244 40.426
L24.218 40.379
L24.132 40.217
L24.107 40.168
L24.084 40.119
L24.063 40.068
L23.995 39.897
L23.976 39.846
L23.958 39.794
L23.943 39.741
L23.894 39.563
L23.880 39.510
L23.869 39.457
L23.860 39.410
L23.830 39.229
L23.822 39.175
L23.816 39.121
L23.812 39.065
L23.802 38.881
L23.800 38.827
L23.800 38.772
L23.802 38.719
L23.812 38.535
L23.816 38.480
L23.822 38.426
L23.830 38.371
L23.860 38.190
L23.870 38.136
L23.882 38.082
L23.894 38.037
L23.943 37.859
L23.958 37.806
L23.976 37.754
L23.995 37.703
L24.063 37.532
L24.084 37.481
L24.107 37.432
L24.132 37.383
L24.218 37.221
L24.245 37.173
L24.273 37.126
L24.302 37.081
L24.406 36.928
L24.438 36.883
L24.471 36.839
L24.504 36.800
L24.623 36.660
L24.659 36.618
L24.697 36.579
L24.730 36.546
L24.863 36.419
L24.903 36.382
L24.945 36.346
L24.995 36.307
L25.142 36.196
L25.186 36.164
L25.232 36.133
L25.273 36.107
L25.431 36.012
L25.479 35.985
L25.527 35.960
L25.576 35.936
L25.743 35.859
L25.793 35.837
L25.844 35.817
L25.889 35.800
L26.063 35.741
L26.115 35.725
L26.168 35.710
L26.220 35.698
L26.400 35.658
L26.453 35.647
L26.507 35.638
L26.562 35.631
L26.745 35.611
L26.800 35.606
L26.854 35.603
L26.908 35.602
L27.092 35.602
L27.147 35.603
M25.300 38.800
A1.700,1.700 0 1,0 28.700,38.800
A1.700,1.700 0 1,0 25.300,38.800
" 
fill="#e0e0e0" vector-effect="non-scaling-stroke" stroke="#000000" stroke-width="0.100mm" fpd:visible="front" />
<path d="
M27.147 35.603
L27.201 35.606
L27.255 35.611
L27.438 35.631
L27.492 35.638
L27.546 35.647
L27.600 35.658
L27.780 35.698
L27.834 35.711
L27.886 35.725
L27.937 35.741
L28.111 35.800
L28.162 35.819
L28.213 35.839
L28.257 35.859
L28.424 35.936
L28.473 35.960
L28.522 35.985
L28.569 36.012
L28.727 36.107
L28.819 36.167
L28.858 36.196
L29.005 36.307
L29.048 36.341
L29.090 36.376
L29.137 36.419
L29.270 36.546
L29.309 36.585
L29.346 36.625
L29.377 36.660
L29.496 36.800
L29.531 36.842
L29.564 36.886
L29.594 36.928
L29.698 37.081
L29.727 37.127
L29.756 37.174
L29.782 37.221
L29.868 37.383
L29.893 37.432
L29.916 37.481
L29.937 37.532
L30.005 37.703
L30.024 37.754
L30.042 37.806
L30.057 37.859
L30.106 38.037
L30.120 38.090
L30.131 38.143
L30.140 38.190
L30.170 38.371
L30.178 38.425
L30.184 38.479
L30.188 38.535
L30.198 38.719
L30.200 38.773
L30.200 38.828
L30.198 38.881
L30.188 39.065
L30.184 39.120
L30.178 39.174
L30.170 39.229
L30.140 39.410
L30.130 39.464
L30.118 39.518
L30.106 39.563
L30.057 39.741
L30.042 39.794
L30.024 39.846
L30.005 39.897
L29.937 40.068
L29.916 40.119
L29.893 40.168
L29.868 40.217
L29.782 40.379
L29.755 40.427
L29.727 40.474
L29.698 40.519
L29.594 40.672
L29.562 40.717
L29.529 40.761
L29.496 40.800
L29.377 40.940
L29.341 40.982
L29.303 41.021
L29.270 41.054
L29.137 41.181
L29.097 41.218
L29.055 41.254
L29.005 41.293
L28.858 41.404
L28.814 41.436
L28.768 41.467
L28.727 41.493
L28.569 41.588
L28.521 41.615
L28.473 41.640
L28.424 41.664
L28.257 41.741
L28.207 41.763
L28.156 41.783
L28.111 41.800
L27.937 41.859
L27.885 41.875
L27.832 41.890
L27.780 41.902
L27.600 41.942
L27.547 41.953
L27.493 41.962
L27.438 41.969
L27.255 41.989
L27.200 41.994
L27.146 41.997
L27.092 41.998
L26.908 41.998
L26.853 41.997
L26.799 41.994
L26.745 41.989
L26.562 41.969
L26.508 41.962
L26.454 41.953
L26.400 41.942
L26.220 41.902
L26.166 41.889
L26.114 41.875
L26.063 41.859
L25.889 41.800
L25.838 41.781
L25.787 41.761
L25.743 41.741
L25.576 41.664
L25.527 41.640
L25.478 41.615
L25.431 41.588
L25.273 41.493
L25.181 41.433
L25.142 41.404
L24.995 41.293
L24.952 41.259
L24.910 41.224
L24.863 41.181
L24.730 41.054
L24.691 41.015
L24.654 40.975
L24.623 40.940
L24.504 40.800
L24.469 40.758
L24.436 40.714
L24.406 40.672
L24.302 40.519
L24.273 40.473
L24.244 40.426
L24.218 40.379
L24.132 40.217
L24.107 40.168
L24.084 40.119
L24.063 40.068
L23.995 39.897
L23.976 39.846
L23.958 39.794
L23.943 39.741
L23.894 39.563
L23.880 39.510
L23.869 39.457
L23.860 39.410
L23.830 39.229
L23.822 39.175
L23.816 39.121
L23.812 39.065
L23.802 38.881
L23.800 38.827
L23.800 38.772
L23.802 38.719
L23.812 38.535
L23.816 38.480
L23.822 38.426
L23.830 38.371
L23.860 38.190
L23.870 38.136
L23.882 38.082
L23.894 38.037
L23.943 37.859
L23.958 37.806
L23.976 37.754
L23.995 37.703
L24.063 37.532
L24.084 37.481
L24.107 37.432
L24.132 37.383
L24.218 37.221
L24.245 37.173
L24.273 37.126
L24.302 37.081
L24.406 36.928
L24.438 36.883
L24.471 36.839
L24.504 36.800
L24.623 36.660
L24.659 36.618
L24.697 36.579
L24.730 36.546
L24.863 36.419
L24.903 36.382
L24.945 36.346
L24.995 36.307
L25.142 36.196
L25.186 36.164
L25.232 36.133
L25.273 36.107
L25.431 36.012
L25.479 35.985
L25.527 35.960
L25.576 35.936
L25.743 35.859
L25.793 35.837
L25.844 35.817
L25.889 35.800
L26.063 35.741
L26.115 35.725
L26.168 35.710
L26.220 35.698
L26.400 35.658
L26.453 35.647
L26.507 35.638
L26.562 35.631
L26.745 35.611
L26.800 35.606
L26.854 35.603
L26.908 35.602
L27.092 35.602
L27.147 35.603
" 
fill="none" vector-effect="non-scaling-stroke" stroke="#000000" stroke-width="0.100mm" fpd:visible="front" />
<path d="
M25.300 38.800
A1.700,1.700 0 1,0 28.700,38.800
A1.700,1.700 0 1,0 25.300,38.800
" 
fill="#ffffff" vector-effect="non-scaling-stroke" stroke="#000000" stroke-width="0.100mm" fpd:visible="front back" fpd:print_element="0" />
<path d="
M456.147 1.603
L456.201 1.606
L456.255 1.611
L456.438 1.631
L456.492 1.638
L456.546 1.647
L456.600 1.658
L456.780 1.698
L456.834 1.711
L456.886 1.725
L456.937 1.741
L457.111 1.800
L457.162 1.819
L457.213 1.839
L457.257 1.859
L457.424 1.936
L457.473 1.960
L457.522 1.985
L457.569 2.012
L457.727 2.107
L457.819 2.167
L457.858 2.196
L458.005 2.307
L458.048 2.341
L458.090 2.376
L458.137 2.419
L458.270 2.546
L458.309 2.585
L458.346 2.625
L458.377 2.660
L458.496 2.800
L458.531 2.842
L458.564 2.886
L458.594 2.928
L458.698 3.081
L458.727 3.127
L458.756 3.174
L458.782 3.221
L458.868 3.383
L458.893 3.432
L458.916 3.481
L458.937 3.532
L459.005 3.703
L459.024 3.754
L459.042 3.806
L459.057 3.859
L459.106 4.037
L459.120 4.090
L459.131 4.143
L459.140 4.190
L459.170 4.371
L459.178 4.425
L459.184 4.479
L459.188 4.535
L459.198 4.719
L459.200 4.773
L459.200 4.828
L459.198 4.881
L459.188 5.065
L459.184 5.120
L459.178 5.174
L459.170 5.229
L459.140 5.410
L459.130 5.464
L459.118 5.518
L459.106 5.563
L459.057 5.741
L459.042 5.794
L459.024 5.846
L459.005 5.897
L458.937 6.068
L458.916 6.119
L458.893 6.168
L458.868 6.217
L458.782 6.379
L458.755 6.427
L458.727 6.474
L458.698 6.519
L458.594 6.672
L458.562 6.717
L458.529 6.761
L458.496 6.800
L458.377 6.940
L458.341 6.982
L458.303 7.021
L458.270 7.054
L458.137 7.181
L458.097 7.218
L458.055 7.254
L458.005 7.293
L457.858 7.404
L457.814 7.436
L457.768 7.467
L457.727 7.493
L457.569 7.588
L457.521 7.615
L457.473 7.640
L457.424 7.664
L457.257 7.741
L457.207 7.763
L457.156 7.783
L457.111 7.800
L456.937 7.859
L456.885 7.875
L456.832 7.890
L456.780 7.902
L456.600 7.942
L456.547 7.953
L456.493 7.962
L456.438 7.969
L456.255 7.989
L456.200 7.994
L456.146 7.997
L456.092 7.998
L455.908 7.998
L455.853 7.997
L455.799 7.994
L455.745 7.989
L455.562 7.969
L455.508 7.962
L455.454 7.953
L455.400 7.942
L455.220 7.902
L455.166 7.889
L455.114 7.875
L455.063 7.859
L454.889 7.800
L454.838 7.781
L454.787 7.761
L454.743 7.741
L454.576 7.664
L454.527 7.640
L454.478 7.615
L454.431 7.588
L454.273 7.493
L454.181 7.433
L454.142 7.404
L453.995 7.293
L453.952 7.259
L453.910 7.224
L453.863 7.181
L453.730 7.054
L453.691 7.015
L453.654 6.975
L453.623 6.940
L453.504 6.800
L453.469 6.758
L453.436 6.714
L453.406 6.672
L453.302 6.519
L453.273 6.473
L453.244 6.426
L453.218 6.379
L453.132 6.217
L453.107 6.168
L453.084 6.119
L453.063 6.068
L452.995 5.897
L452.976 5.846
L452.958 5.794
L452.943 5.741
L452.894 5.563
L452.880 5.510
L452.869 5.457
L452.860 5.410
L452.830 5.229
L452.822 5.175
L452.816 5.121
L452.812 5.065
L452.802 4.881
L452.800 4.827
L452.800 4.772
L452.802 4.719
L452.812 4.535
L452.816 4.480
L452.822 4.426
L452.830 4.371
L452.860 4.190
L452.870 4.136
L452.882 4.082
L452.894 4.037
L452.943 3.859
L452.958 3.806
L452.976 3.754
L452.995 3.703
L453.063 3.532
L453.084 3.481
L453.107 3.432
L453.132 3.383
L453.218 3.221
L453.245 3.173
L453.273 3.126
L453.302 3.081
L453.406 2.928
L453.438 2.883
L453.471 2.839
L453.504 2.800
L453.623 2.660
L453.659 2.618
L453.697 2.579
L453.730 2.546
L453.863 2.419
L453.903 2.382
L453.945 2.346
L453.995 2.307
L454.142 2.196
L454.186 2.164
L454.232 2.133
L454.273 2.107
L454.431 2.012
L454.479 1.985
L454.527 1.960
L454.576 1.936
L454.743 1.859
L454.793 1.837
L454.844 1.817
L454.889 1.800
L455.063 1.741
L455.115 1.725
L455.168 1.710
L455.220 1.698
L455.400 1.658
L455.453 1.647
L455.507 1.638
L455.562 1.631
L455.745 1.611
L455.800 1.606
L455.854 1.603
L455.908 1.602
L456.092 1.602
L456.147 1.603
M454.300 4.800
A1.700,1.700 0 1,0 457.700,4.800
A1.700,1.700 0 1,0 454.300,4.800
" 
fill="#e0e0e0" vector-effect="non-scaling-stroke" stroke="#000000" stroke-width="0.100mm" fpd:visible="front" />
<path d="
M456.147 1.603
L456.201 1.606
L456.255 1.611
L456.438 1.631
L456.492 1.638
L456.546 1.647
L456.600 1.658
L456.780 1.698
L456.834 1.711
L456.886 1.725
L456.937 1.741
L457.111 1.800
L457.162 1.819
L457.213 1.839
L457.257 1.859
L457.424 1.936
L457.473 1.960
L457.522 1.985
L457.569 2.012
L457.727 2.107
L457.819 2.167
L457.858 2.196
L458.005 2.307
L458.048 2.341
L458.090 2.376
L458.137 2.419
L458.270 2.546
L458.309 2.585
L458.346 2.625
L458.377 2.660
L458.496 2.800
L458.531 2.842
L458.564 2.886
L458.594 2.928
L458.698 3.081
L458.727 3.127
L458.756 3.174
L458.782 3.221
L458.868 3.383
L458.893 3.432
L458.916 3.481
L458.937 3.532
L459.005 3.703
L459.024 3.754
L459.042 3.806
L459.057 3.859
L459.106 4.037
L459.120 4.090
L459.131 4.143
L459.140 4.190
L459.170 4.371
L459.178 4.425
L459.184 4.479
L459.188 4.535
L459.198 4.719
L459.200 4.773
L459.200 4.828
L459.198 4.881
L459.188 5.065
L459.184 5.120
L459.178 5.174
L459.170 5.229
L459.140 5.410
L459.130 5.464
L459.118 5.518
L459.106 5.563
L459.057 5.741
L459.042 5.794
L459.024 5.846
L459.005 5.897
L458.937 6.068
L458.916 6.119
L458.893 6.168
L458.868 6.217
L458.782 6.379
L458.755 6.427
L458.727 6.474
L458.698 6.519
L458.594 6.672
L458.562 6.717
L458.529 6.761
L458.496 6.800
L458.377 6.940
L458.341 6.982
L458.303 7.021
L458.270 7.054
L458.137 7.181
L458.097 7.218
L458.055 7.254
L458.005 7.293
L457.858 7.404
L457.814 7.436
L457.768 7.467
L457.727 7.493
L457.569 7.588
L457.521 7.615
L457.473 7.640
L457.424 7.664
L457.257 7.741
L457.207 7.763
L457.156 7.783
L457.111 7.800
L456.937 7.859
L456.885 7.875
L456.832 7.890
L456.780 7.902
L456.600 7.942
L456.547 7.953
L456.493 7.962
L456.438 7.969
L456.255 7.989
L456.200 7.994
L456.146 7.997
L456.092 7.998
L455.908 7.998
L455.853 7.997
L455.799 7.994
L455.745 7.989
L455.562 7.969
L455.508 7.962
L455.454 7.953
L455.400 7.942
L455.220 7.902
L455.166 7.889
L455.114 7.875
L455.063 7.859
L454.889 7.800
L454.838 7.781
L454.787 7.761
L454.743 7.741
L454.576 7.664
L454.527 7.640
L454.478 7.615
L454.431 7.588
L454.273 7.493
L454.181 7.433
L454.142 7.404
L453.995 7.293
L453.952 7.259
L453.910 7.224
L453.863 7.181
L453.730 7.054
L453.691 7.015
L453.654 6.975
L453.623 6.940
L453.504 6.800
L453.469 6.758
L453.436 6.714
L453.406 6.672
L453.302 6.519
L453.273 6.473
L453.244 6.426
L453.218 6.379
L453.132 6.217
L453.107 6.168
L453.084 6.119
L453.063 6.068
L452.995 5.897
L452.976 5.846
L452.958 5.794
L452.943 5.741
L452.894 5.563
L452.880 5.510
L452.869 5.457
L452.860 5.410
L452.830 5.229
L452.822 5.175
L452.816 5.121
L452.812 5.065
L452.802 4.881
L452.800 4.827
L452.800 4.772
L452.802 4.719
L452.812 4.535
L452.816 4.480
L452.822 4.426
L452.830 4.371
L452.860 4.190
L452.870 4.136
L452.882 4.082
L452.894 4.037
L452.943 3.859
L452.958 3.806
L452.976 3.754
L452.995 3.703
L453.063 3.532
L453.084 3.481
L453.107 3.432
L453.132 3.383
L453.218 3.221
L453.245 3.173
L453.273 3.126
L453.302 3.081
L453.406 2.928
L453.438 2.883
L453.471 2.839
L453.504 2.800
L453.623 2.660
L453.659 2.618
L453.697 2.579
L453.730 2.546
L453.863 2.419
L453.903 2.382
L453.945 2.346
L453.995 2.307
L454.142 2.196
L454.186 2.164
L454.232 2.133
L454.273 2.107
L454.431 2.012
L454.479 1.985
L454.527 1.960
L454.576 1.936
L454.743 1.859
L454.793 1.837
L454.844 1.817
L454.889 1.800
L455.063 1.741
L455.115 1.725
L455.168 1.710
L455.220 1.698
L455.400 1.658
L455.453 1.647
L455.507 1.638
L455.562 1.631
L455.745 1.611
L455.800 1.606
L455.854 1.603
L455.908 1.602
L456.092 1.602
L456.147 1.603
" 
fill="none" vector-effect="non-scaling-stroke" stroke="#000000" stroke-width="0.100mm" fpd:visible="front" />
<path d="
M454.300 4.800
A1.700,1.700 0 1,0 457.700,4.800
A1.700,1.700 0 1,0 454.300,4.800
" 
fill="#ffffff" vector-effect="non-scaling-stroke" stroke="#000000" stroke-width="0.100mm" fpd:visible="front back" fpd:print_element="0" />
<path d="
M27.147 1.603
L27.201 1.606
L27.255 1.611
L27.438 1.631
L27.492 1.638
L27.546 1.647
L27.600 1.658
L27.780 1.698
L27.834 1.711
L27.886 1.725
L27.937 1.741
L28.111 1.800
L28.162 1.819
L28.213 1.839
L28.257 1.859
L28.424 1.936
L28.473 1.960
L28.522 1.985
L28.569 2.012
L28.727 2.107
L28.819 2.167
L28.858 2.196
L29.005 2.307
L29.048 2.341
L29.090 2.376
L29.137 2.419
L29.270 2.546
L29.309 2.585
L29.346 2.625
L29.377 2.660
L29.496 2.800
L29.531 2.842
L29.564 2.886
L29.594 2.928
L29.698 3.081
L29.727 3.127
L29.756 3.174
L29.782 3.221
L29.868 3.383
L29.893 3.432
L29.916 3.481
L29.937 3.532
L30.005 3.703
L30.024 3.754
L30.042 3.806
L30.057 3.859
L30.106 4.037
L30.120 4.090
L30.131 4.143
L30.140 4.190
L30.170 4.371
L30.178 4.425
L30.184 4.479
L30.188 4.535
L30.198 4.719
L30.200 4.773
L30.200 4.828
L30.198 4.881
L30.188 5.065
L30.184 5.120
L30.178 5.174
L30.170 5.229
L30.140 5.410
L30.130 5.464
L30.118 5.518
L30.106 5.563
L30.057 5.741
L30.042 5.794
L30.024 5.846
L30.005 5.897
L29.937 6.068
L29.916 6.119
L29.893 6.168
L29.868 6.217
L29.782 6.379
L29.755 6.427
L29.727 6.474
L29.698 6.519
L29.594 6.672
L29.562 6.717
L29.529 6.761
L29.496 6.800
L29.377 6.940
L29.341 6.982
L29.303 7.021
L29.270 7.054
L29.137 7.181
L29.097 7.218
L29.055 7.254
L29.005 7.293
L28.858 7.404
L28.814 7.436
L28.768 7.467
L28.727 7.493
L28.569 7.588
L28.521 7.615
L28.473 7.640
L28.424 7.664
L28.257 7.741
L28.207 7.763
L28.156 7.783
L28.111 7.800
L27.937 7.859
L27.885 7.875
L27.832 7.890
L27.780 7.902
L27.600 7.942
L27.547 7.953
L27.493 7.962
L27.438 7.969
L27.255 7.989
L27.200 7.994
L27.146 7.997
L27.092 7.998
L26.908 7.998
L26.853 7.997
L26.799 7.994
L26.745 7.989
L26.562 7.969
L26.508 7.962
L26.454 7.953
L26.400 7.942
L26.220 7.902
L26.166 7.889
L26.114 7.875
L26.063 7.859
L25.889 7.800
L25.838 7.781
L25.787 7.761
L25.743 7.741
L25.576 7.664
L25.527 7.640
L25.478 7.615
L25.431 7.588
L25.273 7.493
L25.181 7.433
L25.142 7.404
L24.995 7.293
L24.952 7.259
L24.910 7.224
L24.863 7.181
L24.730 7.054
L24.691 7.015
L24.654 6.975
L24.623 6.940
L24.504 6.800
L24.469 6.758
L24.436 6.714
L24.406 6.672
L24.302 6.519
L24.273 6.473
L24.244 6.426
L24.218 6.379
L24.132 6.217
L24.107 6.168
L24.084 6.119
L24.063 6.068
L23.995 5.897
L23.976 5.846
L23.958 5.794
L23.943 5.741
L23.894 5.563
L23.880 5.510
L23.869 5.457
L23.860 5.410
L23.830 5.229
L23.822 5.175
L23.816 5.121
L23.812 5.065
L23.802 4.881
L23.800 4.827
L23.800 4.772
L23.802 4.719
L23.812 4.535
L23.816 4.480
L23.822 4.426
L23.830 4.371
L23.860 4.190
L23.870 4.136
L23.882 4.082
L23.894 4.037
L23.943 3.859
L23.958 3.806
L23.976 3.754
L23.995 3.703
L24.063 3.532
L24.084 3.481
L24.107 3.432
L24.132 3.383
L24.218 3.221
L24.245 3.173
L24.273 3.126
L24.302 3.081
L24.406 2.928
L24.438 2.883
L24.471 2.839
L24.504 2.800
L24.623 2.660
L24.659 2.618
L24.697 2.579
L24.730 2.546
L24.863 2.419
L24.903 2.382
L24.945 2.346
L24.995 2.307
L25.142 2.196
L25.186 2.164
L25.232 2.133
L25.273 2.107
L25.431 2.012
L25.479 1.985
L25.527 1.960
L25.576 1.936
L25.743 1.859
L25.793 1.837
L25.844 1.817
L25.889 1.800
L26.063 1.741
L26.115 1.725
L26.168 1.710
L26.220 1.698
L26.400 1.658
L26.453 1.647
L26.507 1.638
L26.562 1.631
L26.745 1.611
L26.800 1.606
L26.854 1.603
L26.908 1.602
L27.092 1.602
L27.147 1.603
M25.300 4.800
A1.700,1.700 0 1,0 28.700,4.800
A1.700,1.700 0 1,0 25.300,4.800
" 
fill="#e0e0e0" vector-effect="non-scaling-stroke" stroke="#000000" stroke-width="0.100mm" fpd:visible="front" />
<path d="
M27.147 1.603
L27.201 1.606
L27.255 1.611
L27.438 1.631
L27.492 1.638
L27.546 1.647
L27.600 1.658
L27.780 1.698
L27.834 1.711
L27.886 1.725
L27.937 1.741
L28.111 1.800
L28.162 1.819
L28.213 1.839
L28.257 1.859
L28.424 1.936
L28.473 1.960
L28.522 1.985
L28.569 2.012
L28.727 2.107
L28.819 2.167
L28.858 2.196
L29.005 2.307
L29.048 2.341
L29.090 2.376
L29.137 2.419
L29.270 2.546
L29.309 2.585
L29.346 2.625
L29.377 2.660
L29.496 2.800
L29.531 2.842
L29.564 2.886
L29.594 2.928
L29.698 3.081
L29.727 3.127
L29.756 3.174
L29.782 3.221
L29.868 3.383
L29.893 3.432
L29.916 3.481
L29.937 3.532
L30.005 3.703
L30.024 3.754
L30.042 3.806
L30.057 3.859
L30.106 4.037
L30.120 4.090
L30.131 4.143
L30.140 4.190
L30.170 4.371
L30.178 4.425
L30.184 4.479
L30.188 4.535
L30.198 4.719
L30.200 4.773
L30.200 4.828
L30.198 4.881
L30.188 5.065
L30.184 5.120
L30.178 5.174
L30.170 5.229
L30.140 5.410
L30.130 5.464
L30.118 5.518
L30.106 5.563
L30.057 5.741
L30.042 5.794
L30.024 5.846
L30.005 5.897
L29.937 6.068
L29.916 6.119
L29.893 6.168
L29.868 6.217
L29.782 6.379
L29.755 6.427
L29.727 6.474
L29.698 6.519
L29.594 6.672
L29.562 6.717
L29.529 6.761
L29.496 6.800
L29.377 6.940
L29.341 6.982
L29.303 7.021
L29.270 7.054
L29.137 7.181
L29.097 7.218
L29.055 7.254
L29.005 7.293
L28.858 7.404
L28.814 7.436
L28.768 7.467
L28.727 7.493
L28.569 7.588
L28.521 7.615
L28.473 7.640
L28.424 7.664
L28.257 7.741
L28.207 7.763
L28.156 7.783
L28.111 7.800
L27.937 7.859
L27.885 7.875
L27.832 7.890
L27.780 7.902
L27.600 7.942
L27.547 7.953
L27.493 7.962
L27.438 7.969
L27.255 7.989
L27.200 7.994
L27.146 7.997
L27.092 7.998
L26.908 7.998
L26.853 7.997
L26.799 7.994
L26.745 7.989
L26.562 7.969
L26.508 7.962
L26.454 7.953
L26.400 7.942
L26.220 7.902
L26.166 7.889
L26.114 7.875
L26.063 7.859
L25.889 7.800
L25.838 7.781
L25.787 7.761
L25.743 7.741
L25.576 7.664
L25.527 7.640
L25.478 7.615
L25.431 7.588
L25.273 7.493
L25.181 7.433
L25.142 7.404
L24.995 7.293
L24.952 7.259
L24.910 7.224
L24.863 7.181
L24.730 7.054
L24.691 7.015
L24.654 6.975
L24.623 6.940
L24.504 6.800
L24.469 6.758
L24.436 6.714
L24.406 6.672
L24.302 6.519
L24.273 6.473
L24.244 6.426
L24.218 6.379
L24.132 6.217
L24.107 6.168
L24.084 6.119
L24.063 6.068
L23.995 5.897
L23.976 5.846
L23.958 5.794
L23.943 5.741
L23.894 5.563
L23.880 5.510
L23.869 5.457
L23.860 5.410
L23.830 5.229
L23.822 5.175
L23.816 5.121
L23.812 5.065
L23.802 4.881
L23.800 4.827
L23.800 4.772
L23.802 4.719
L23.812 4.535
L23.816 4.480
L23.822 4.426
L23.830 4.371
L23.860 4.190
L23.870 4.136
L23.882 4.082
L23.894 4.037
L23.943 3.859
L23.958 3.806
L23.976 3.754
L23.995 3.703
L24.063 3.532
L24.084 3.481
L24.107 3.432
L24.132 3.383
L24.218 3.221
L24.245 3.173
L24.273 3.126
L24.302 3.081
L24.406 2.928
L24.438 2.883
L24.471 2.839
L24.504 2.800
L24.623 2.660
L24.659 2.618
L24.697 2.579
L24.730 2.546
L24.863 2.419
L24.903 2.382
L24.945 2.346
L24.995 2.307
L25.142 2.196
L25.186 2.164
L25.232 2.133
L25.273 2.107
L25.431 2.012
L25.479 1.985
L25.527 1.960
L25.576 1.936
L25.743 1.859
L25.793 1.837
L25.844 1.817
L25.889 1.800
L26.063 1.741
L26.115 1.725
L26.168 1.710
L26.220 1.698
L26.400 1.658
L26.453 1.647
L26.507 1.638
L26.562 1.631
L26.745 1.611
L26.800 1.606
L26.854 1.603
L26.908 1.602
L27.092 1.602
L27.147 1.603
" 
fill="none" vector-effect="non-scaling-stroke" stroke="#000000" stroke-width="0.100mm" fpd:visible="front" />
<path d="
M25.300 4.800
A1.700,1.700 0 1,0 28.700,4.800
A1.700,1.700 0 1,0 25.300,4.800
" 
fill="#ffffff" vector-effect="non-scaling-stroke" stroke="#000000" stroke-width="0.100mm" fpd:visible="front back" fpd:print_element="0" />
<path d="
M469.853 40.870
A5.250,5.250 0 0,1 469.853,34.430
A1.500,1.500 0 0,1 471.038,33.850
L476.962 33.850
A1.500,1.500 0 0,1 478.147,34.430
A5.250,5.250 0 0,1 478.147,40.870
A1.500,1.500 0 0,1 476.962,41.450
L471.038 41.450
A1.500,1.500 0 0,1 469.853,40.870
" 
fill="#ffffff" vector-effect="non-scaling-stroke" stroke="#000000" stroke-width="0.100mm" fpd:visible="front back" fpd:print_element="0" />
<path d="
M4.853 40.870
A5.250,5.250 0 0,1 4.853,34.430
A1.500,1.500 0 0,1 6.038,33.850
L11.962 33.850
A1.500,1.500 0 0,1 13.147,34.430
A5.250,5.250 0 0,1 13.147,40.870
A1.500,1.500 0 0,1 11.962,41.450
L6.038 41.450
A1.500,1.500 0 0,1 4.853,40.870
" 
fill="#ffffff" vector-effect="non-scaling-stroke" stroke="#000000" stroke-width="0.100mm" fpd:visible="front back" fpd:print_element="0" />
<path d="
M469.853 9.169
A5.250,5.250 0 0,1 469.853,2.729
A1.500,1.500 0 0,1 471.038,2.149
L476.962 2.149
A1.500,1.500 0 0,1 478.147,2.729
A5.250,5.250 0 0,1 478.147,9.169
A1.500,1.500 0 0,1 476.962,9.749
L471.038 9.749
A1.500,1.500 0 0,1 469.853,9.169
" 
fill="#ffffff" vector-effect="non-scaling-stroke" stroke="#000000" stroke-width="0.100mm" fpd:visible="front back" fpd:print_element="0" />
<path d="
M4.853 9.169
A5.250,5.250 0 0,1 4.853,2.729
A1.500,1.500 0 0,1 6.038,2.149
L11.962 2.149
A1.500,1.500 0 0,1 13.147,2.729
A5.250,5.250 0 0,1 13.147,9.169
A1.500,1.500 0 0,1 11.962,9.749
L6.038 9.749
A1.500,1.500 0 0,1 4.853,9.169
" 
fill="#ffffff" vector-effect="non-scaling-stroke" stroke="#000000" stroke-width="0.100mm" fpd:visible="front back" fpd:print_element="0" />
<path d="
M86.716 14.300
A0.500,0.500 0 0,1 87.216,13.800
L118.216 13.800
A0.500,0.500 0 0,1 118.716,14.300
L118.716 29.300
A0.500,0.500 0 0,1 118.216,29.800
L87.216 29.800
A0.500,0.500 0 0,1 86.716,29.300
L86.716 14.300
" 
fill="#ffffff" vector-effect="non-scaling-stroke" stroke="#000000" stroke-width="0.100mm" fpd:visible="front back" fpd:print_element="0" />
<path d="
M135.666 34.730
A1.750,1.750 0 1,0 139.166,34.730
A1.750,1.750 0 1,0 135.666,34.730
" 
fill="#ffffff" vector-effect="non-scaling-stroke" stroke="#000000" stroke-width="0.100mm" fpd:visible="front back" fpd:print_element="0" />
<path d="
M135.666 26.030
A1.750,1.750 0 1,0 139.166,26.030
A1.750,1.750 0 1,0 135.666,26.030
" 
fill="#ffffff" vector-effect="non-scaling-stroke" stroke="#000000" stroke-width="0.100mm" fpd:visible="front back" fpd:print_element="0" />
<path d="
M135.666 17.570
A1.750,1.750 0 1,0 139.166,17.570
A1.750,1.750 0 1,0 135.666,17.570
" 
fill="#ffffff" vector-effect="non-scaling-stroke" stroke="#000000" stroke-width="0.100mm" fpd:visible="front back" fpd:print_element="0" />
<path d="
M135.666 8.870
A1.750,1.750 0 1,0 139.166,8.870
A1.750,1.750 0 1,0 135.666,8.870
" 
fill="#ffffff" vector-effect="non-scaling-stroke" stroke="#000000" stroke-width="0.100mm" fpd:visible="front back" fpd:print_element="0" />
<path d="
M404.216 21.135
A0.835,0.835 0 0,1 405.051,20.300
L430.381 20.300
A0.835,0.835 0 0,1 431.216,21.135
L431.216 22.465
A0.835,0.835 0 0,1 430.381,23.300
L405.051 23.300
A0.835,0.835 0 0,1 404.216,22.465
L404.216 21.135
" 
fill="#ffffff" vector-effect="non-scaling-stroke" stroke="#000000" stroke-width="0.100mm" fpd:visible="front back" fpd:print_element="0" />
<path d="
M481.000 43.600
A2.000,2.000 0 0,0 483.000,41.600
L483.000 2.000
A2.000,2.000 0 0,0 481.000,0.000
L2.000 0.000
A2.000,2.000 0 0,0 0.000,2.000
L0.000 41.600
A2.000,2.000 0 0,0 2.000,43.600
L481.000 43.600
" 
fill="none" vector-effect="non-scaling-stroke" stroke="#000000" stroke-width="0.100mm" fpd:visible="front back" />
</g>
  <defs>
    <pattern id="revside-fill-808080" x="0" y="0" width="4.830" height="4.830" patternUnits="userSpaceOnUse">
      <line x1="0" y1="0" x2="4.830" y2="4.830000" style="stroke-width:0.483; stroke:#808080; stroke-dasharray:none;" />
      <line x1="0" y1="4.830" x2="4.830" y2="0" style="stroke-width:0.483; stroke:#808080; stroke-dasharray:none;" />
    </pattern>
  </defs>
</svg>
